<?xml version="1.0" standalone="no"?>
<!DOCTYPE svg PUBLIC "-//W3C//DTD SVG 20010904//EN"
 "http://www.w3.org/TR/2001/REC-SVG-20010904/DTD/svg10.dtd">
<svg version="1.0" xmlns="http://www.w3.org/2000/svg"
 width="612.000000pt" height="415.000000pt" viewBox="0 0 612.000000 415.000000"
 preserveAspectRatio="xMidYMid meet">

<g transform="translate(0.000000,415.000000) scale(0.100000,-0.100000)"
fill="#000000" stroke="none">
<path d="M0 3975 c0 -160 2 -175 18 -176 14 0 14 -2 2 -7 -30 -14 -19 -31 25
-37 24 -4 50 -5 57 -2 7 3 -5 6 -27 8 l-40 2 35 7 35 7 -34 2 c-19 0 -32 4
-28 7 8 8 127 -6 126 -14 -1 -4 -1 -31 0 -59 1 -71 21 -68 21 2 0 64 -9 62
132 36 137 -25 182 -32 174 -23 -4 3 -28 9 -54 12 l-47 5 0 40 c1 39 2 40 45
51 33 8 40 13 25 16 -11 3 3 4 30 1 28 -2 64 -8 80 -13 17 -5 57 -14 90 -20
105 -21 105 -21 105 -91 0 -78 8 -74 11 5 l3 58 40 -6 c23 -3 52 -9 65 -12 16
-5 22 -3 18 3 -4 6 -21 13 -39 16 -56 9 -131 26 -188 43 -30 9 -61 18 -67 20
-7 2 -12 16 -12 31 2 24 2 25 6 6 7 -36 30 -26 24 10 -1 4 7 3 18 -3 11 -5 32
-10 48 -9 24 0 25 2 8 8 -17 7 -16 9 9 15 24 6 27 9 15 20 -14 13 -117 47
-156 51 -47 6 -173 53 -173 66 0 4 -12 12 -27 18 -23 8 -17 9 32 5 33 -3 78
-9 100 -14 71 -16 142 -21 125 -9 -25 17 -112 54 -160 68 -25 7 -53 17 -62 22
-10 5 -106 9 -213 9 l-195 0 0 -175z m565 -75 c3 -5 2 -10 -4 -10 -5 0 -13 5
-16 10 -3 6 -2 10 4 10 5 0 13 -4 16 -10z m-52 -17 c-7 -2 -19 -2 -25 0 -7 3
-2 5 12 5 14 0 19 -2 13 -5z m44 -9 c-3 -3 -12 -4 -19 -1 -8 3 -5 6 6 6 11 1
17 -2 13 -5z m-130 -10 c-3 -3 -12 -4 -19 -1 -8 3 -5 6 6 6 11 1 17 -2 13 -5z
m-104 -35 c-6 -6 -19 -9 -29 -6 -16 4 -15 5 4 6 12 0 22 6 22 13 0 6 3 8 7 5
4 -4 2 -12 -4 -18z m-130 -11 c4 -10 8 -9 16 2 9 12 11 11 11 -7 0 -25 7 -28
30 -12 12 9 11 10 -5 4 -14 -4 -17 -3 -10 4 14 14 86 2 79 -13 -3 -6 3 -2 13
10 27 30 46 25 48 -13 2 -39 -1 -39 -100 -18 -38 8 -83 17 -100 20 -16 3 -46
10 -65 15 -30 8 -28 9 18 4 36 -3 52 -1 47 6 -3 5 -2 10 4 10 5 0 12 -6 14
-12z"/>
<path d="M3179 4115 c47 -18 88 -32 93 -29 4 3 8 2 8 -3 0 -4 21 -16 48 -26
26 -11 56 -23 67 -28 11 -4 83 -34 160 -65 77 -31 146 -58 153 -61 6 -3 12 0
12 5 0 11 -83 52 -105 52 -7 0 -16 7 -19 16 -4 10 -14 14 -25 11 -11 -3 -29 4
-40 15 -12 10 -25 17 -30 14 -14 -9 -82 14 -88 30 -3 8 -14 14 -25 14 -10 0
-17 4 -14 9 6 9 -40 20 -96 24 -33 2 -34 5 -10 23 15 13 14 13 -10 5 -19 -7
-39 -5 -77 10 -89 33 -90 20 -2 -16z"/>
<path d="M3200 4139 c0 -15 33 -18 58 -5 25 13 25 14 -16 12 -23 0 -42 -4 -42
-7z"/>
<path d="M5760 4142 c0 -5 29 -19 65 -31 36 -13 65 -26 65 -31 0 -4 -16 -15
-35 -26 -19 -10 -35 -21 -35 -25 0 -4 19 -9 42 -13 22 -4 45 -9 50 -12 5 -3
-9 -24 -31 -46 -23 -22 -41 -44 -41 -49 0 -5 18 -9 40 -9 23 0 40 -5 40 -11 0
-8 13 -9 40 -5 22 3 40 3 40 -1 0 -10 -49 -33 -70 -33 -9 0 -20 -4 -25 -9 -6
-5 -21 -11 -35 -14 -14 -2 -2 -3 25 -1 28 3 89 5 138 5 l87 1 0 159 0 159
-180 0 c-99 0 -180 -4 -180 -8z"/>
<path d="M2980 4109 c43 -19 44 -19 10 -14 l-35 6 25 -16 c17 -11 19 -14 5 -9
-35 12 -60 10 -57 -5 2 -9 -3 -11 -13 -7 -9 3 -22 6 -28 7 -7 0 -3 4 8 9 15 6
8 9 -30 10 -27 1 -73 5 -101 9 -28 4 -56 5 -63 3 -18 -6 19 -31 47 -32 24 0
125 -51 117 -58 -3 -3 -50 10 -105 28 -56 18 -104 29 -108 25 -7 -7 37 -44 53
-45 6 0 64 -26 130 -58 136 -66 282 -127 293 -122 2 1 13 -5 25 -13 12 -7 35
-17 51 -21 39 -10 77 -36 69 -49 -3 -5 -2 -7 3 -4 12 7 26 -2 40 -27 6 -11 24
-24 40 -29 62 -19 60 -17 44 -27 -10 -7 -4 -8 20 -5 21 2 62 -6 105 -20 38
-13 89 -27 113 -31 23 -4 42 -10 42 -15 0 -5 7 -9 16 -9 9 0 44 -15 77 -32 64
-34 112 -80 112 -107 0 -11 8 -15 28 -13 20 2 27 -2 28 -15 0 -11 3 -13 6 -5
8 19 23 14 23 -8 0 -55 -48 -98 -77 -69 -7 7 -16 3 -31 -15 -11 -15 -22 -21
-24 -15 -3 9 -13 8 -40 -1 -29 -11 -43 -11 -63 -2 -18 9 -32 9 -45 2 -12 -7
-34 -7 -60 -1 -22 5 -50 7 -61 4 -12 -3 -24 -1 -28 4 -16 27 -84 53 -136 53
-29 0 -56 4 -59 8 -4 8 -70 25 -146 38 -14 3 -47 11 -75 19 -27 7 -93 24 -145
36 -52 12 -104 26 -115 32 -11 6 -52 16 -92 23 -59 10 -82 20 -123 53 -46 36
-73 47 -103 42 -24 -4 -129 24 -134 35 -3 9 -23 12 -63 11 -49 -1 -55 -3 -42
-14 10 -7 23 -13 30 -13 7 0 20 -4 30 -10 9 -5 35 -17 57 -26 22 -10 43 -22
46 -27 3 -5 10 -8 15 -8 5 0 47 -11 94 -26 95 -29 170 -63 189 -87 16 -19 8
-20 -21 -5 -23 13 -31 8 -22 -14 3 -9 12 -13 20 -10 9 3 14 -1 14 -12 0 -9 5
-13 10 -10 6 3 10 -1 10 -9 0 -9 -3 -15 -7 -14 -5 2 -9 0 -10 -4 -2 -5 0 -8 4
-7 10 1 21 -31 22 -63 1 -14 7 -29 14 -31 10 -4 10 -6 0 -6 -15 -1 -18 -31 -3
-31 6 0 13 7 17 15 5 14 8 14 27 2 20 -14 21 -13 21 24 1 21 4 42 8 46 4 4 58
-5 120 -20 62 -14 157 -36 212 -48 55 -12 105 -25 110 -29 6 -4 40 -17 78 -30
39 -14 67 -29 67 -37 0 -8 -4 -11 -10 -8 -5 3 -10 1 -10 -4 0 -6 5 -11 10 -11
7 0 7 -7 -1 -21 -11 -21 -10 -22 27 -17 25 4 44 1 51 -7 7 -8 32 -11 65 -10
37 2 58 -2 71 -13 15 -13 22 -14 37 -4 25 16 30 15 30 -3 0 -19 17 -19 36 -1
8 9 10 17 5 21 -6 3 -8 12 -4 20 3 8 0 15 -6 15 -6 0 -11 -9 -11 -20 0 -23 -8
-25 -33 -6 -14 11 -16 19 -8 33 7 14 30 23 83 32 78 14 112 27 104 40 -5 8 36
31 54 31 19 0 10 -29 -12 -35 -15 -5 16 -17 108 -40 219 -56 214 -54 214 -75
0 -20 48 -75 57 -66 3 3 0 12 -6 20 -9 11 -9 20 -2 34 9 17 16 19 45 12 19 -4
37 -5 41 -2 3 3 16 -1 30 -8 20 -11 27 -11 40 0 14 11 17 10 21 -8 4 -11 13
-20 22 -20 27 0 135 -23 154 -33 10 -5 20 -20 24 -34 5 -20 36 -46 33 -27 -6
38 1 42 71 42 l70 0 -5 -27 c-2 -16 -6 -56 -9 -90 -6 -68 -2 -73 60 -73 33 0
34 1 34 39 0 69 10 101 34 102 20 1 20 2 1 6 -11 3 -24 9 -29 14 -6 5 -19 9
-30 9 -21 1 -21 1 -2 15 26 19 18 25 -46 34 -47 7 -102 22 -373 96 -284 78
-491 138 -498 144 -13 12 18 45 34 35 8 -5 41 -16 74 -25 33 -10 126 -38 207
-63 81 -25 152 -46 157 -46 5 0 11 10 14 23 4 22 4 22 15 -3 8 -19 11 -21 11
-7 1 25 25 16 29 -11 3 -20 50 -42 90 -42 25 0 11 21 -18 27 -23 4 -30 11 -30
29 0 26 10 30 27 13 8 -8 13 -7 19 3 12 18 12 108 0 108 -5 0 -7 2 -5 4 2 2
25 1 52 -3 26 -5 47 -4 47 1 0 4 -6 8 -14 8 -7 0 -25 9 -38 20 -14 10 -28 17
-31 14 -3 -3 -13 6 -22 20 -10 14 -23 26 -31 26 -17 0 -37 37 -30 56 10 25 -2
15 -23 -21 -21 -36 -27 -37 -79 -12 -20 9 -23 17 -18 47 5 31 4 32 -6 12 -12
-24 -38 -23 -69 4 -8 8 -23 14 -33 14 -9 0 -15 3 -13 8 3 4 -7 8 -21 9 -49 3
-143 36 -138 49 3 8 -7 12 -29 12 -35 0 -111 36 -132 62 -14 19 -10 59 8 71
15 9 12 10 -35 13 -23 1 -43 46 -21 46 8 0 15 3 15 8 0 11 -188 75 -200 67 -9
-6 -181 49 -205 65 -5 4 -64 26 -130 50 -66 23 -129 47 -139 52 -18 10 -18 7
-12 -32 6 -37 2 -49 -25 -91 -23 -37 -37 -49 -56 -49 -30 0 -87 54 -79 75 4
10 -5 20 -27 29 -21 9 -26 15 -14 15 10 1 27 -4 37 -9 17 -9 20 -6 26 26 5 26
3 39 -7 45 -10 6 -11 9 -1 9 6 0 12 9 12 19 0 14 -21 27 -90 55 -94 37 -149
50 -70 15z m65 -29 c-3 -5 -12 -10 -18 -10 -7 0 -6 4 3 10 19 12 23 12 15 0z
m-88 -96 c-3 -3 -12 -4 -19 -1 -8 3 -5 6 6 6 11 1 17 -2 13 -5z m843 -164 c13
-9 13 -10 0 -10 -8 0 -22 5 -30 10 -13 9 -13 10 0 10 8 0 22 -5 30 -10z m185
-200 c3 -5 1 -10 -4 -10 -6 0 -11 5 -11 10 0 6 2 10 4 10 3 0 8 -4 11 -10z
m-15 -155 c0 -14 -4 -25 -10 -25 -11 0 -14 33 -3 43 11 11 13 8 13 -18z m147
-60 c33 -9 38 -15 41 -44 3 -29 1 -33 -15 -26 -62 25 -78 25 -96 3 -17 -20
-18 -21 -11 -3 4 11 12 39 18 62 6 25 13 37 18 30 4 -6 24 -16 45 -22z m121
-42 c21 -9 40 -21 43 -26 3 -4 10 -7 15 -6 5 1 16 -1 24 -4 8 -4 27 -11 43
-16 20 -8 27 -17 27 -37 0 -24 -3 -25 -27 -19 -16 3 -41 12 -58 20 -16 7 -52
21 -80 32 -41 16 -51 24 -53 46 -4 32 13 35 66 10z m-288 -73 c0 -5 -4 -10 -9
-10 -6 0 -13 5 -16 10 -3 6 1 10 9 10 9 0 16 -4 16 -10z m495 -2 c15 -7 25
-19 25 -33 0 -31 -7 -34 -41 -22 -22 9 -29 18 -29 39 0 31 7 34 45 16z m-770
-161 c10 -8 14 -16 9 -19 -14 -9 -56 11 -49 22 8 13 18 13 40 -3z"/>
<path d="M2648 4113 c6 -2 18 -2 25 0 6 3 1 5 -13 5 -14 0 -19 -2 -12 -5z"/>
<path d="M1361 4094 c0 -11 3 -14 6 -6 3 7 2 16 -1 19 -3 4 -6 -2 -5 -13z"/>
<path d="M2913 4103 c9 -2 23 -2 30 0 6 3 -1 5 -18 5 -16 0 -22 -2 -12 -5z"/>
<path d="M2560 4090 c0 -5 5 -10 10 -10 6 0 10 5 10 10 0 6 -4 10 -10 10 -5 0
-10 -4 -10 -10z"/>
<path d="M2610 4073 c8 -3 18 -11 22 -17 5 -7 8 -4 8 7 0 11 -7 17 -22 16 -16
0 -18 -2 -8 -6z"/>
<path d="M3430 4040 c19 -13 30 -13 30 0 0 6 -10 10 -22 10 -19 0 -20 -2 -8
-10z"/>
<path d="M3188 4023 c6 -2 18 -2 25 0 6 3 1 5 -13 5 -14 0 -19 -2 -12 -5z"/>
<path d="M1835 4012 c6 -5 21 -13 34 -17 17 -5 22 -4 19 6 -3 8 -18 15 -34 17
-19 2 -25 0 -19 -6z"/>
<path d="M1868 3963 c7 -3 16 -2 19 1 4 3 -2 6 -13 5 -11 0 -14 -3 -6 -6z"/>
<path d="M3739 3898 c-11 -8 -11 -9 1 -5 8 2 21 -2 28 -10 7 -7 23 -13 34 -13
25 0 23 2 -18 22 -21 10 -37 12 -45 6z"/>
<path d="M1178 3833 c7 -3 16 -2 19 1 4 3 -2 6 -13 5 -11 0 -14 -3 -6 -6z"/>
<path d="M3910 3821 c24 -13 37 -15 42 -8 10 17 -3 31 -14 16 -7 -11 -11 -11
-15 -1 -2 6 -14 12 -26 12 -17 0 -15 -4 13 -19z"/>
<path d="M3997 3789 c7 -7 15 -10 18 -7 3 3 -2 9 -12 12 -14 6 -15 5 -6 -5z"/>
<path d="M940 3770 c0 -5 5 -10 10 -10 6 0 10 5 10 10 0 6 -4 10 -10 10 -5 0
-10 -4 -10 -10z"/>
<path d="M6036 3765 c-3 -8 -1 -15 4 -15 5 0 10 -12 12 -27 2 -23 8 -29 36
-31 30 -3 32 -1 32 27 0 24 -4 31 -20 31 -11 0 -20 7 -20 15 0 8 -9 15 -19 15
-10 0 -21 -7 -25 -15z"/>
<path d="M4000 3730 c0 -5 7 -10 16 -10 9 0 30 -6 47 -14 18 -7 52 -21 77 -31
25 -10 59 -24 75 -31 85 -36 139 -54 149 -50 7 3 7 5 -1 5 -7 1 -41 14 -75 30
-89 41 -262 111 -276 111 -7 0 -12 -4 -12 -10z"/>
<path d="M738 3673 c7 -3 16 -2 19 1 4 3 -2 6 -13 5 -11 0 -14 -3 -6 -6z"/>
<path d="M10 3661 c14 -8 129 -27 225 -37 l40 -4 -35 10 c-44 13 -199 40 -225
40 -16 -1 -17 -2 -5 -9z"/>
<path d="M1887 3655 c-11 -11 -29 -13 -65 -10 -42 4 -55 1 -93 -24 -48 -32
-109 -108 -126 -156 -36 -99 -64 -302 -56 -403 3 -44 2 -88 -2 -99 -4 -10 -7
-32 -6 -50 1 -17 -5 -42 -14 -56 -8 -13 -13 -33 -9 -43 4 -12 3 -15 -3 -7 -6
8 -12 5 -19 -12 -11 -22 -7 -26 55 -69 36 -25 129 -99 205 -165 77 -65 149
-119 160 -119 12 -1 28 -2 36 -2 65 -5 186 29 161 44 -6 4 -11 2 -11 -4 0 -7
-6 -8 -18 -1 -13 7 -22 7 -29 0 -13 -13 -57 7 -48 21 3 4 1 10 -4 12 -5 1 -12
15 -16 29 -5 19 -2 28 9 32 12 5 16 0 16 -15 0 -16 3 -19 11 -11 18 18 3 46
-20 38 -16 -5 -18 -2 -14 14 3 14 0 23 -11 27 -21 8 -20 23 3 76 l19 44 -24 2
c-25 2 -54 -30 -54 -59 0 -9 -7 -19 -15 -23 -14 -5 -19 7 -17 44 0 8 -5 19
-11 23 -7 5 -1 7 15 4 23 -3 29 1 37 24 5 16 14 29 19 29 5 0 14 10 19 23 9
18 7 32 -8 63 -10 21 -18 58 -19 82 0 23 -4 42 -10 42 -5 0 -10 7 -10 15 0 8
9 15 20 15 11 0 20 5 20 10 0 6 9 10 19 10 20 0 35 -37 25 -64 -4 -10 9 -30
37 -56 43 -40 59 -49 59 -29 0 5 5 7 10 4 6 -4 8 -10 6 -14 -3 -4 4 -8 15 -8
10 -1 26 -9 35 -18 9 -8 24 -13 34 -10 23 7 37 -13 37 -55 0 -19 -2 -29 -5
-22 -2 6 -9 9 -15 5 -6 -4 -22 -8 -35 -9 -41 -5 -51 -12 -45 -33 3 -12 1 -21
-6 -21 -6 0 -11 7 -11 15 0 8 -4 15 -10 15 -13 0 -13 -6 0 -31 8 -15 7 -19 -4
-19 -8 0 -16 4 -18 10 -6 17 -75 -9 -92 -35 -20 -30 -22 -55 -4 -37 14 14 42
16 33 2 -3 -5 -2 -10 2 -10 5 0 13 -10 18 -22 12 -27 49 -39 39 -13 -6 15 -4
15 15 3 17 -10 18 -14 6 -16 -8 -2 -15 -8 -15 -14 0 -5 6 -8 13 -5 8 3 14 -1
14 -8 0 -7 -8 -12 -19 -10 -10 2 -18 0 -18 -4 0 -13 39 -21 46 -10 3 5 11 6
17 3 7 -4 9 -4 5 1 -4 4 0 14 10 21 14 11 14 14 2 14 -8 1 -5 5 9 11 15 6 21
15 17 24 -3 8 -1 15 5 15 6 0 7 5 3 12 -5 7 -2 9 9 5 8 -3 21 1 28 9 7 9 23
13 38 11 14 -2 20 -2 14 0 -7 3 -13 11 -13 19 0 8 -4 13 -9 10 -12 -8 -41 4
-41 16 0 5 4 7 8 4 23 -14 36 16 38 86 3 78 11 118 25 118 5 0 9 7 9 15 0 8
-21 24 -47 35 -27 12 -61 28 -78 35 -16 8 -56 19 -87 25 -32 6 -58 14 -58 17
0 3 11 3 25 1 29 -6 30 -1 10 26 -19 26 -19 34 3 39 15 4 15 5 1 6 -26 2 -31
29 -8 42 16 8 19 17 15 37 -4 23 -3 23 9 -5 30 -67 53 -25 26 45 -11 27 -19
57 -18 68 1 11 -7 23 -20 29 -13 5 -23 15 -23 20 0 21 60 72 90 78 18 4 30 13
30 22 0 17 16 20 25 4 4 -5 12 -8 18 -6 18 7 47 -12 47 -30 0 -10 -6 -14 -20
-10 -24 6 -25 -1 -5 -27 8 -11 15 -27 15 -37 0 -17 45 -52 67 -52 7 0 13 -4
13 -8 0 -4 16 -13 35 -20 19 -7 35 -17 35 -22 0 -4 5 -5 10 -2 6 3 10 2 10 -3
0 -6 9 -8 20 -5 39 10 39 104 0 143 -11 11 -20 30 -20 43 0 12 -8 30 -17 39
-35 33 -43 46 -31 50 6 2 -5 14 -25 27 -20 12 -37 27 -37 33 0 6 -6 8 -14 5
-8 -3 -16 2 -19 14 -3 11 -11 19 -19 18 -27 -5 -108 14 -119 27 -8 9 -26 12
-62 9 -43 -4 -48 -3 -34 7 16 12 15 13 -8 14 -14 1 -22 -2 -19 -7 3 -5 -5 -5
-18 0 -13 4 -32 5 -43 0 -30 -11 -35 -11 -35 6 0 19 -14 19 -33 0z m88 -25
c-3 -5 0 -10 8 -10 8 0 20 -7 27 -15 9 -10 9 -15 1 -15 -6 0 -11 5 -11 10 0 6
-9 10 -19 10 -21 0 -34 13 -24 24 10 10 25 7 18 -4z m105 -367 c0 -25 -2 -44
-4 -42 -8 10 -13 89 -5 89 5 0 9 -21 9 -47z m-409 -3 c10 -6 26 -24 34 -40 18
-34 18 -40 5 -40 -5 0 -10 6 -10 13 0 21 -41 49 -74 51 -26 1 -30 -2 -28 -19
2 -16 1 -17 -7 -5 -13 18 -13 15 -11 -70 1 -36 -1 -63 -4 -60 -2 3 -6 35 -7
71 -2 51 2 70 17 87 20 24 54 28 85 12z m-4 -74 c-3 -7 -1 -18 5 -24 6 -6 1
-12 -15 -16 -28 -7 -40 -40 -32 -83 l5 -28 -14 30 c-9 17 -15 37 -15 45 -1 20
34 72 42 63 4 -3 7 1 7 10 0 10 5 17 11 17 6 0 9 -6 6 -14z m-57 -165 c0 -11
-4 -9 -15 5 -8 10 -14 28 -14 39 0 18 1 17 14 -5 8 -14 14 -31 15 -39z m122
32 c-5 -10 -7 -24 -4 -32 3 -8 0 -11 -7 -7 -12 8 -15 39 -4 49 13 14 23 6 15
-10z m-58 -40 c14 -18 16 -28 8 -31 -14 -4 -16 -32 -2 -32 6 0 10 -4 10 -10 0
-22 -47 -10 -58 15 -15 32 -15 48 -2 40 9 -5 15 15 11 38 -2 15 15 5 33 -20z
m505 -369 c10 -9 -6 -11 -43 -6 -26 3 -34 7 -25 13 12 7 57 2 68 -7z m-25 -29
c20 -15 20 -15 0 -15 -10 0 -28 7 -38 15 -20 15 -20 15 0 15 10 0 28 -7 38
-15z"/>
<path d="M5123 3590 c0 -47 2 -66 4 -42 2 23 2 61 0 85 -2 23 -4 4 -4 -43z"/>
<path d="M288 3613 c6 -2 18 -2 25 0 6 3 1 5 -13 5 -14 0 -19 -2 -12 -5z"/>
<path d="M393 3565 c0 -22 2 -30 4 -17 2 12 2 30 0 40 -3 9 -5 -1 -4 -23z"/>
<path d="M4529 3518 c6 -7 15 -13 19 -13 4 -1 16 -6 27 -12 11 -6 65 -25 120
-42 55 -18 107 -36 116 -41 9 -4 21 -5 28 -1 7 5 0 13 -21 24 -54 26 -161 65
-201 72 -21 4 -40 11 -43 16 -3 5 -17 9 -32 9 -21 0 -23 -2 -13 -12z"/>
<path d="M7 3513 c7 -2 19 -2 26 0 6 3 1 5 -13 5 -14 0 -19 -2 -13 -5z"/>
<path d="M73 3503 c9 -2 23 -2 30 0 6 3 -1 5 -18 5 -16 0 -22 -2 -12 -5z"/>
<path d="M128 3493 c6 -2 18 -2 25 0 6 3 1 5 -13 5 -14 0 -19 -2 -12 -5z"/>
<path d="M188 3438 c6 -69 12 -75 12 -10 0 45 3 51 23 55 17 3 15 5 -9 6 l-31
1 5 -52z"/>
<path d="M300 3471 c55 -13 127 -21 110 -12 -8 5 -44 11 -80 14 -45 4 -54 3
-30 -2z"/>
<path d="M2655 3390 c3 -5 8 -10 11 -10 2 0 4 5 4 10 0 6 -5 10 -11 10 -5 0
-7 -4 -4 -10z"/>
<path d="M188 3343 c7 -3 16 -2 19 1 4 3 -2 6 -13 5 -11 0 -14 -3 -6 -6z"/>
<path d="M5125 3320 c3 -5 11 -10 16 -10 6 0 7 5 4 10 -3 6 -11 10 -16 10 -6
0 -7 -4 -4 -10z"/>
<path d="M4726 3222 c18 -9 40 -22 51 -29 15 -9 23 -8 43 8 l25 19 -47 0 c-26
0 -50 5 -53 10 -3 6 -16 10 -28 10 -19 -1 -18 -3 9 -18z"/>
<path d="M8 3213 c7 -3 16 -2 19 1 4 3 -2 6 -13 5 -11 0 -14 -3 -6 -6z"/>
<path d="M2970 3200 c-19 -4 -29 -8 -22 -9 7 0 10 -6 6 -12 -4 -7 1 -7 16 1
16 9 25 9 33 1 15 -15 30 -14 22 2 -4 6 4 0 17 -15 27 -31 43 -35 52 -13 7 19
46 20 46 1 0 -11 19 -17 70 -22 39 -3 70 -11 70 -16 0 -5 4 -7 10 -3 5 3 32
-2 59 -11 59 -19 82 -14 74 15 -5 21 -23 29 -23 11 0 -5 -5 -10 -12 -10 -6 0
-1 11 12 25 l23 25 -26 0 c-15 0 -27 -5 -27 -10 0 -7 -13 -9 -32 -5 -18 3 -49
7 -68 9 -19 2 -42 6 -50 8 -8 3 -32 10 -52 17 -20 6 -48 9 -62 5 -16 -4 -26
-2 -26 5 0 12 -55 13 -110 1z"/>
<path d="M4675 3200 c3 -5 1 -10 -5 -10 -6 0 -10 -8 -8 -17 2 -13 14 -18 41
-19 47 -1 48 17 1 39 -19 10 -33 13 -29 7z"/>
<path d="M2600 3175 c-7 -8 -18 -15 -24 -15 -6 0 -4 5 4 11 13 9 13 10 0 6 -8
-2 -14 -10 -12 -16 1 -6 -7 -20 -18 -31 -15 -15 -19 -27 -14 -47 5 -18 4 -24
-5 -19 -7 5 -11 -3 -11 -24 0 -20 -4 -29 -11 -25 -6 4 -8 13 -5 21 3 7 1 16
-4 19 -16 10 -50 -57 -50 -97 0 -23 -7 -44 -19 -55 -12 -12 -18 -30 -17 -57 1
-23 -3 -40 -11 -43 -7 -3 -13 -9 -13 -15 0 -5 5 -6 12 -2 7 4 8 3 4 -5 -4 -7
0 -28 9 -46 18 -39 17 -103 -2 -123 -20 -21 -15 -32 12 -32 22 0 25 -4 25 -37
0 -41 6 -41 14 0 8 43 17 67 26 67 4 0 11 10 15 23 7 21 7 21 12 2 3 -11 9
-24 14 -29 13 -14 11 -44 -3 -49 -7 -3 0 -6 15 -6 16 -1 38 -6 50 -13 12 -6
42 -16 67 -23 27 -7 45 -17 45 -26 0 -8 4 -17 9 -21 6 -4 -3 -9 -20 -13 -16
-4 -39 -11 -52 -16 -26 -10 -69 -12 -59 -3 7 7 -17 34 -31 34 -5 0 -9 7 -8 16
0 9 -5 19 -13 22 -11 4 -13 -2 -8 -27 8 -36 2 -39 -21 -10 -22 26 -54 16 -47
-15 9 -36 12 -128 4 -114 -15 24 -24 -4 -23 -70 1 -37 -1 -58 -3 -47 -10 54
-14 67 -18 63 -3 -2 -14 -89 -24 -194 -11 -104 -29 -234 -40 -289 -35 -177
-34 -168 -8 -162 12 3 85 11 162 18 120 10 355 56 372 72 3 3 0 26 -5 52 -7
31 -6 55 0 73 9 22 3 50 -31 155 -23 70 -44 148 -48 173 -8 60 -20 64 -29 9
-6 -43 -4 -67 12 -137 6 -26 2 -30 -47 -53 -111 -51 -292 -24 -310 47 -7 28
13 68 34 68 7 0 29 -11 49 -25 l37 -25 3 22 c4 26 56 57 95 56 16 -1 38 4 48
9 16 10 15 11 -11 17 -16 4 -45 20 -64 37 l-35 29 69 -2 c49 -2 71 1 74 10 2
7 0 12 -5 11 -24 -4 -53 2 -53 12 0 6 -11 24 -25 41 -29 34 -31 45 -10 45 8 0
15 -6 15 -12 0 -18 66 -35 98 -25 l27 8 -25 2 -25 1 24 10 c19 7 22 12 13 21
-7 7 -12 19 -12 28 0 33 32 122 49 139 22 22 18 31 -34 63 -45 29 -57 63 -22
65 20 2 51 29 59 53 2 5 32 12 66 15 52 5 68 3 83 -11 10 -9 19 -24 19 -32 0
-8 6 -12 15 -8 16 6 32 -35 20 -53 -3 -6 1 -11 9 -11 10 0 16 -9 17 -22 0 -22
1 -22 8 -3 5 11 5 25 0 30 -11 14 6 39 20 31 7 -5 11 1 11 14 0 32 18 60 40
60 10 0 22 5 25 10 4 7 -3 9 -22 5 -15 -3 -22 -2 -15 1 12 5 42 55 42 69 0 3
-4 3 -10 0 -13 -8 -13 1 1 26 8 17 7 23 -8 34 -10 7 -21 11 -25 9 -4 -2 -4 12
-1 32 5 32 4 36 -10 31 -10 -4 -17 -2 -17 3 0 6 4 10 8 10 4 0 8 18 9 40 1 22
-2 40 -8 40 -5 0 -9 -8 -9 -17 -1 -20 -23 -53 -35 -53 -4 0 -2 7 5 15 7 8 10
21 7 29 -3 7 -1 18 3 22 5 5 7 19 4 31 -4 15 -16 22 -42 26 -21 3 -64 12 -97
20 -48 12 -54 15 -30 17 17 2 46 2 65 1 l35 -1 -34 15 c-18 8 -39 15 -47 15
-7 0 -11 6 -9 13 4 8 -9 12 -44 12 -53 0 -59 -15 -13 -31 23 -8 16 -10 -38
-11 -46 -1 -59 1 -42 8 25 9 30 29 7 29 -8 0 -15 -4 -15 -9 0 -5 -9 -11 -20
-14 -25 -6 -26 1 -2 20 16 14 16 14 -3 7 -11 -4 -32 -8 -46 -8 -14 -1 -32 -6
-40 -12 -31 -24 -44 -27 -25 -6 11 12 15 22 10 23 -5 1 2 5 16 9 22 7 23 8 4
9 -12 1 -27 -6 -34 -14z m200 -83 c0 -5 -33 -8 -74 -8 -41 1 -72 4 -69 9 6 10
143 9 143 -1z m-100 -22 c-8 -5 -19 -10 -25 -10 -5 0 -3 5 5 10 8 5 20 10 25
10 6 0 3 -5 -5 -10z m166 -17 c29 -9 51 -20 49 -24 -6 -8 -38 -2 -80 16 -16 7
-37 15 -45 18 -39 14 28 5 76 -10z m-4 -107 c12 -9 17 -16 10 -16 -14 0 -72
28 -72 35 0 8 41 -4 62 -19z m-176 -301 c9 -8 11 -15 6 -15 -5 0 -15 7 -22 15
-7 8 -9 15 -6 15 4 0 14 -7 22 -15z m-50 -21 c38 -18 74 -54 39 -40 -11 5 -29
8 -40 8 -16 -1 -17 1 -5 8 13 9 13 10 0 11 -8 1 -22 3 -30 4 -8 1 -21 3 -27 4
-7 0 -13 6 -13 11 0 15 38 12 76 -6z"/>
<path d="M2758 3183 c7 -3 16 -2 19 1 4 3 -2 6 -13 5 -11 0 -14 -3 -6 -6z"/>
<path d="M4866 3168 c-3 -7 -3 -24 -2 -38 2 -14 4 -37 5 -52 1 -18 7 -28 16
-28 12 0 15 13 15 55 0 30 0 58 1 63 0 13 -31 14 -35 0z"/>
<path d="M2980 3111 c0 -6 5 -13 10 -16 6 -3 10 1 10 9 0 9 -4 16 -10 16 -5 0
-10 -4 -10 -9z"/>
<path d="M3825 3090 c28 -12 37 -12 30 0 -3 6 -16 10 -28 9 -21 0 -21 -1 -2
-9z"/>
<path d="M5126 3093 c-3 -3 -6 -35 -6 -69 0 -60 -1 -63 -25 -66 -32 -4 -34
-21 -4 -28 34 -8 37 -32 4 -28 -39 4 -42 -17 -5 -32 l32 -13 -4 -95 -3 -94
-48 -3 c-26 -1 -50 -5 -53 -8 -6 -6 17 -29 70 -70 l37 -29 -2 -102 c-2 -100 2
-126 22 -126 12 0 12 37 -1 45 -11 7 -13 95 -4 142 l6 30 89 -1 89 -1 2 -65 1
-65 6 65 6 65 39 -3 c23 -2 42 2 47 9 10 16 19 -60 16 -133 -1 -39 -6 -58 -14
-58 -7 0 -13 12 -13 26 0 22 -3 25 -22 20 -13 -3 -26 -6 -30 -6 -5 0 -8 -7 -8
-15 0 -21 -20 -19 -21 3 0 12 -3 10 -10 -7 -8 -19 -5 -28 11 -43 25 -23 26
-33 3 -23 -10 5 -31 9 -48 10 -16 2 -33 3 -37 4 -5 1 -8 8 -8 16 0 9 -10 15
-26 15 -21 0 -25 -4 -22 -22 2 -15 11 -24 26 -26 25 -4 31 -22 6 -22 -8 0 -13
-4 -9 -9 3 -6 17 -6 35 -1 16 5 32 5 35 0 3 -5 30 -8 60 -7 38 1 59 -4 72 -16
25 -22 88 -27 88 -7 0 9 -7 14 -17 12 -13 -2 -16 4 -15 25 1 20 -3 28 -15 28
-9 0 -20 4 -24 8 -4 4 0 7 9 7 14 0 17 10 17 52 0 48 1 50 18 36 9 -8 24 -14
32 -13 8 0 18 -6 21 -15 4 -10 9 -2 12 20 3 19 9 60 14 91 10 63 8 79 -13 79
-8 0 -14 5 -14 10 0 6 7 10 14 10 11 0 16 14 18 50 2 28 7 51 12 53 5 1 16
-22 24 -50 8 -29 18 -53 23 -53 4 0 20 11 36 23 30 25 73 41 73 27 0 -5 -10
-11 -22 -13 -13 -2 5 -2 39 1 84 7 113 -11 108 -66 -2 -21 0 -72 4 -113 l8
-74 2 67 c1 49 5 67 14 65 6 -1 15 -6 19 -12 4 -6 8 -2 8 8 0 10 4 16 8 13 5
-3 21 2 36 10 16 7 36 14 45 14 9 1 39 14 66 29 l50 29 3 222 2 221 -42 -5
c-24 -3 -88 -11 -142 -16 -55 -6 -102 -12 -104 -14 -6 -6 24 -21 114 -56 82
-33 120 -57 74 -48 -14 3 -33 9 -42 13 -14 5 -18 2 -18 -11 0 -11 -4 -25 -9
-33 -16 -25 -41 5 -34 40 5 24 1 30 -21 39 -41 15 -45 13 -43 -22 2 -28 -2
-34 -22 -36 -34 -5 -51 16 -27 34 11 8 16 14 12 14 -5 0 -3 6 3 14 10 12 7 18
-18 31 -28 14 -49 14 -201 3 l-170 -12 0 -54 0 -53 -37 3 -38 3 -5 69 c-6 84
-30 106 -30 29 0 -27 -6 -58 -14 -68 -13 -18 -15 -18 -77 -1 -35 10 -69 25
-76 33 -8 10 -10 36 -6 78 5 57 -3 85 -21 68z m129 -267 l60 -13 3 -81 c3 -79
2 -82 -22 -93 -20 -9 -23 -16 -16 -29 13 -25 -9 -31 -54 -16 -52 18 -55 26
-10 26 l39 1 -34 15 c-19 8 -41 13 -49 12 -20 -4 -30 30 -31 104 -2 95 2 98
114 74z m139 -51 l36 -15 0 -80 c0 -73 -2 -79 -17 -71 -10 6 -30 12 -45 16
-27 5 -28 7 -28 79 0 61 4 86 15 86 2 0 19 -7 39 -15z m-294 -145 c-19 -13
-30 -13 -30 0 0 6 10 10 23 10 18 0 19 -2 7 -10z m60 -50 c0 -5 -4 -10 -10
-10 -5 0 -10 5 -10 10 0 6 5 10 10 10 6 0 10 -4 10 -10z m320 -30 c12 -8 9
-10 -13 -10 -16 0 -26 4 -22 10 8 12 16 12 35 0z m-62 -214 c3 -12 -1 -17 -10
-14 -7 3 -15 13 -16 22 -3 12 1 17 10 14 7 -3 15 -13 16 -22z"/>
<path d="M3795 3070 c-3 -6 5 -10 19 -10 13 0 26 -5 28 -11 2 -6 13 -9 23 -7
16 4 13 8 -17 21 -44 20 -45 20 -53 7z"/>
<path d="M3093 3058 c-20 -10 -21 -11 -5 -28 12 -12 51 -23 127 -35 240 -36
409 -66 427 -76 17 -9 24 -42 19 -91 -2 -13 5 -16 26 -14 26 3 28 6 28 47 l0
44 87 0 c48 0 78 -3 67 -7 -30 -12 -22 -19 19 -17 88 4 352 -45 370 -69 16
-21 12 -84 -5 -90 -9 -2 -11 5 -7 27 5 24 3 31 -10 31 -12 0 -16 -10 -16 -41
0 -36 -3 -41 -19 -36 -14 3 -21 -2 -26 -20 -7 -28 -29 -26 -31 3 0 10 -2 30
-3 44 l-3 25 -7 -25 c-6 -21 -13 -25 -39 -22 -26 2 -32 -2 -32 -17 0 -14 8
-21 28 -23 24 -3 27 -7 24 -34 l-3 -31 45 11 c29 6 42 14 39 23 -6 14 21 45
31 36 10 -10 7 -51 -4 -58 -5 -3 -10 -18 -10 -33 0 -20 3 -23 12 -14 7 7 20
12 29 12 9 0 21 6 27 13 7 8 28 13 52 11 38 -1 42 -5 35 -29 -10 -35 -12 -56
-6 -60 4 -2 62 -5 128 -6 66 -1 143 -5 171 -9 29 -3 52 -3 52 1 0 16 -36 24
-97 24 l-63 0 0 30 c0 47 -14 61 -29 28 -9 -19 -15 -23 -20 -14 -6 8 -10 2
-14 -19 -6 -28 -10 -31 -39 -28 -41 4 -46 21 -14 53 16 16 26 37 26 55 0 16 4
31 10 35 16 10 60 -7 60 -23 0 -13 2 -13 13 3 13 17 16 17 58 2 24 -9 66 -19
92 -22 44 -6 48 -5 44 12 -3 10 -8 39 -12 64 l-6 47 65 7 c36 3 70 4 76 0 5
-3 10 -26 10 -50 0 -30 5 -45 16 -49 24 -9 26 -4 13 34 -9 24 -9 38 -1 51 14
22 4 26 -88 34 -123 11 -228 25 -256 34 -16 5 -83 19 -149 30 -221 38 -460 81
-505 91 -25 5 -142 26 -260 46 -118 19 -282 49 -364 65 -168 33 -154 31 -183
17z m1345 -254 c7 -2 11 -7 9 -11 -3 -5 36 -9 87 -9 50 -1 99 -4 110 -6 26 -6
49 -39 36 -52 -5 -5 -10 -20 -10 -31 0 -17 -6 -22 -28 -22 -25 0 -28 3 -24 30
4 28 3 29 -21 25 -15 -3 -28 0 -31 6 -2 6 -5 3 -5 -8 -1 -15 -3 -16 -17 -6
-13 11 -16 10 -21 -9 -4 -17 -8 -19 -14 -9 -5 7 -9 23 -9 36 0 26 -19 30 -21
5 -1 -17 -2 -17 -6 0 -5 21 -23 23 -23 2 0 -22 -31 -18 -37 5 -6 22 -23 27
-23 7 0 -7 -7 -22 -16 -33 -15 -18 -15 -18 -9 9 5 25 3 27 -25 27 -30 0 -37
11 -25 43 5 10 19 13 58 10 29 -3 58 -6 65 -9z m-108 -126 c0 -23 -3 -29 -11
-21 -6 6 -8 20 -4 32 9 30 15 26 15 -11z m-60 -30 c0 -36 -18 -76 -21 -48 -6
51 -3 80 9 80 7 0 12 -13 12 -32z m125 10 c-8 -25 -22 -44 -29 -37 -10 10 8
59 21 59 10 0 12 -6 8 -22z m40 -68 c-3 -5 -10 -10 -16 -10 -5 0 -9 5 -9 10 0
6 7 10 16 10 8 0 12 -4 9 -10z"/>
<path d="M4635 2711 c-3 -5 -1 -12 5 -16 5 -3 10 1 10 9 0 18 -6 21 -15 7z"/>
<path d="M3966 3050 c-19 -6 -19 -7 -1 -13 20 -8 29 -4 24 11 -2 5 -13 6 -23
2z"/>
<path d="M4130 3050 c0 -5 5 -10 10 -10 6 0 10 5 10 10 0 6 -4 10 -10 10 -5 0
-10 -4 -10 -10z"/>
<path d="M4190 3040 c0 -5 5 -10 10 -10 6 0 10 5 10 10 0 6 -4 10 -10 10 -5 0
-10 -4 -10 -10z"/>
<path d="M4350 3030 c0 -5 5 -10 10 -10 6 0 10 5 10 10 0 6 -4 10 -10 10 -5 0
-10 -4 -10 -10z"/>
<path d="M4010 3000 c0 -5 5 -10 11 -10 5 0 7 5 4 10 -3 6 -8 10 -11 10 -2 0
-4 -4 -4 -10z"/>
<path d="M4268 2975 c-4 -17 -1 -25 8 -25 8 0 14 9 14 19 0 30 -17 34 -22 6z"/>
<path d="M4075 2980 c3 -5 8 -10 11 -10 2 0 4 5 4 10 0 6 -5 10 -11 10 -5 0
-7 -4 -4 -10z"/>
<path d="M4525 2940 c3 -5 8 -10 11 -10 2 0 4 5 4 10 0 6 -5 10 -11 10 -5 0
-7 -4 -4 -10z"/>
<path d="M3120 2919 c0 -24 23 -21 28 4 2 10 -3 17 -12 17 -10 0 -16 -9 -16
-21z"/>
<path d="M4565 2930 c-3 -5 1 -10 9 -10 9 0 16 5 16 10 0 6 -4 10 -9 10 -6 0
-13 -4 -16 -10z"/>
<path d="M3210 2910 c0 -11 5 -20 10 -20 6 0 10 9 10 20 0 11 -4 20 -10 20 -5
0 -10 -9 -10 -20z"/>
<path d="M4375 2920 c3 -5 8 -10 11 -10 2 0 4 5 4 10 0 6 -5 10 -11 10 -5 0
-7 -4 -4 -10z"/>
<path d="M2358 2913 c7 -3 16 -2 19 1 4 3 -2 6 -13 5 -11 0 -14 -3 -6 -6z"/>
<path d="M4620 2899 c7 -11 14 -19 16 -16 7 7 -7 37 -17 37 -6 0 -5 -9 1 -21z"/>
<path d="M2327 2893 c-11 -10 -8 -46 4 -63 9 -13 10 -12 5 2 -3 10 -1 20 4 23
6 4 10 15 10 26 0 19 -11 25 -23 12z"/>
<path d="M4650 2890 c0 -5 5 -10 10 -10 6 0 10 5 10 10 0 6 -4 10 -10 10 -5 0
-10 -4 -10 -10z"/>
<path d="M4680 2881 c0 -5 9 -13 20 -16 11 -4 17 -11 14 -17 -4 -7 -2 -8 4 -4
15 9 15 12 -4 30 -17 18 -34 21 -34 7z"/>
<path d="M3188 2838 c-7 -13 -13 -66 -14 -122 -2 -55 -5 -109 -8 -121 -7 -28
14 -32 164 -35 92 -1 103 1 85 13 -31 22 -53 27 -58 14 -10 -27 -14 2 -9 61
l4 62 34 0 c22 0 34 5 34 14 0 26 -72 37 -87 14 -4 -7 -9 -42 -9 -77 -2 -72
-9 -83 -43 -70 -19 8 -21 12 -11 24 7 8 11 37 9 67 -3 63 7 94 26 78 9 -8 14
-7 17 2 3 8 20 12 44 12 38 -1 40 0 42 32 2 18 -2 35 -8 39 -6 4 -10 -6 -10
-25 0 -22 -4 -30 -12 -26 -7 3 -21 9 -30 12 -10 4 -18 15 -18 25 0 16 -5 18
-27 13 -16 -4 -33 -11 -40 -16 -8 -7 -16 -3 -25 11 -17 27 -34 27 -50 -1z m63
-75 c3 -24 1 -47 -4 -52 -7 -7 -6 -15 2 -24 12 -16 12 -75 -1 -83 -5 -3 -6
-10 -3 -15 4 -5 -4 -9 -16 -9 -21 0 -21 3 -16 59 2 32 1 80 -4 106 -10 53 -5
68 19 63 12 -2 19 -17 23 -45z"/>
<path d="M3500 2823 c0 -43 5 -41 13 5 4 18 2 32 -3 32 -6 0 -10 -16 -10 -37z"/>
<path d="M3455 2840 c3 -5 10 -10 16 -10 5 0 9 5 9 10 0 6 -7 10 -16 10 -8 0
-12 -4 -9 -10z"/>
<path d="M3614 2835 c-8 -20 3 -48 16 -40 13 8 13 55 0 55 -6 0 -13 -7 -16
-15z"/>
<path d="M3865 2840 c-3 -5 0 -10 7 -10 10 0 10 -2 1 -8 -9 -6 -7 -12 8 -25
11 -10 17 -22 13 -28 -3 -6 2 -19 12 -30 10 -11 20 -28 22 -37 5 -23 6 -134 1
-152 -3 -12 6 -15 42 -16 33 -1 46 2 46 12 0 8 -8 16 -17 19 -11 4 -20 21 -24
46 -7 46 -2 61 22 57 12 -2 16 3 14 15 -2 10 2 25 9 33 9 11 7 14 -15 14 -23
0 -26 4 -26 35 0 19 -4 35 -10 35 -5 0 -10 -17 -10 -38 0 -21 -3 -42 -7 -46
-9 -9 -43 61 -43 89 0 33 -31 58 -45 35z"/>
<path d="M4006 2794 c-4 -10 -1 -14 6 -12 15 5 23 28 10 28 -5 0 -13 -7 -16
-16z"/>
<path d="M2385 2735 c2 -22 4 -48 4 -57 1 -10 6 -18 11 -18 15 0 12 43 -4 81
l-15 34 4 -40z"/>
<path d="M3610 2700 c0 -38 0 -73 0 -77 0 -5 6 -8 13 -8 8 0 11 17 9 58 -3 56
-3 58 17 45 11 -7 22 -19 25 -28 2 -9 4 -6 5 8 1 26 16 29 26 5 6 -14 9 -10
16 17 9 42 7 45 -19 29 -17 -10 -25 -10 -46 4 -41 27 -46 22 -46 -53z"/>
<path d="M3770 2751 c0 -5 5 -13 10 -16 6 -4 7 -23 4 -46 -7 -39 8 -55 20 -23
3 8 10 12 16 9 5 -3 10 -2 10 4 0 5 -6 14 -14 18 -8 4 -16 19 -18 32 -3 24
-28 43 -28 22z"/>
<path d="M3852 2645 c1 -76 4 -105 13 -105 9 0 10 11 4 43 -9 46 -1 134 12
143 16 9 10 24 -10 24 -18 0 -19 -8 -19 -105z"/>
<path d="M0 2657 c0 -12 37 -16 218 -21 223 -7 354 -11 644 -22 l166 -6 -1
-27 c-1 -14 -7 -28 -13 -31 -6 -3 -7 -15 -3 -30 6 -22 7 -23 8 -4 1 12 7 27
15 33 7 6 11 22 8 36 -4 24 -2 25 49 26 102 3 -198 21 -656 39 -137 5 -292 12
-342 15 -77 5 -93 4 -93 -8z"/>
<path d="M1314 2647 c10 -7 39 -25 65 -41 25 -17 78 -57 116 -90 39 -33 85
-68 102 -79 18 -10 31 -22 28 -27 -2 -4 11 -15 30 -26 18 -10 32 -21 29 -26
-3 -4 -16 0 -30 8 -38 25 -41 8 -4 -23 46 -39 71 -53 47 -25 -21 23 -14 47 12
37 30 -11 -63 76 -154 145 -99 74 -234 160 -250 159 -5 0 -2 -6 9 -12z"/>
<path d="M3657 2636 c-4 -10 -5 -21 -2 -24 9 -9 17 6 13 25 -3 17 -4 17 -11
-1z"/>
<path d="M4870 2630 c0 -5 5 -10 10 -10 6 0 10 5 10 10 0 6 -4 10 -10 10 -5 0
-10 -4 -10 -10z"/>
<path d="M1168 2603 c6 -2 18 -2 25 0 6 3 1 5 -13 5 -14 0 -19 -2 -12 -5z"/>
<path d="M4710 2583 c0 -14 27 -29 36 -21 2 3 2 12 -1 20 -7 18 -35 19 -35 1z"/>
<path d="M3 2279 c2 -173 7 -327 12 -343 6 -21 5 -27 -4 -22 -9 6 -11 -16 -10
-88 l1 -95 67 6 c36 3 76 12 88 19 30 19 59 18 122 -6 57 -20 161 -21 212 -2
l26 10 7 -105 c4 -58 15 -133 26 -166 37 -120 109 -534 96 -555 -3 -6 -54
-228 -81 -358 -8 -35 -84 -549 -85 -566 0 -5 220 -8 489 -8 382 0 490 3 494
13 4 9 6 9 6 0 1 -18 362 -18 411 0 49 17 118 58 124 72 2 7 -11 19 -29 28
-25 12 -34 23 -38 49 -6 42 -2 48 33 48 16 0 32 5 35 10 3 6 -3 10 -14 10 -11
0 -23 5 -26 11 -4 5 -19 7 -34 4 -19 -4 -32 0 -44 13 -16 17 -14 21 38 75 30
31 57 67 61 82 7 27 -13 88 -26 80 -4 -3 -6 12 -3 33 12 92 10 127 -6 139 -27
21 -31 15 -31 -52 0 -63 -1 -65 -25 -65 -27 0 -75 -43 -75 -67 0 -7 -8 -17
-17 -20 -10 -4 -25 -16 -35 -28 -9 -11 -20 -16 -24 -12 -5 4 -4 11 2 15 18 11
23 60 8 66 -19 7 -44 -4 -44 -19 0 -8 -6 -20 -13 -27 -7 -7 -22 -29 -34 -48
-12 -19 -38 -51 -59 -70 -34 -33 -36 -33 -29 -10 15 51 17 81 10 127 l-7 48
-39 -45 c-22 -25 -52 -67 -67 -93 -22 -40 -31 -47 -50 -42 -12 3 -33 -2 -47
-11 -30 -19 -65 -10 -65 17 0 16 4 19 20 14 13 -4 31 0 46 10 13 9 30 13 36 9
7 -4 8 -3 4 4 -9 15 24 62 107 148 58 61 117 132 117 141 0 1 -10 -1 -23 -6
-43 -17 -110 -17 -115 -1 -3 13 -2 13 8 0 10 -13 11 -12 6 3 -3 9 -1 30 5 45
l10 27 -25 -30 c-33 -41 -85 -147 -90 -183 -1 -15 -7 -36 -13 -46 -8 -15 -11
-16 -22 -2 -13 16 -6 56 10 56 20 0 8 39 -18 59 -22 16 -24 20 -10 21 14 0 23
13 15 23 -2 1 16 20 39 41 42 38 89 103 81 112 -7 6 -77 -46 -180 -133 -85
-71 -119 -93 -84 -54 10 11 15 25 11 30 -3 6 -1 11 6 11 7 0 0 13 -16 30 -16
16 -34 44 -41 62 -32 87 -76 183 -96 210 l-21 31 -35 -39 c-68 -77 -156 -164
-160 -159 -3 3 4 15 15 28 47 53 90 126 102 172 8 28 22 68 32 91 11 23 17 48
14 57 -4 8 -2 18 4 22 6 3 11 13 11 22 0 12 -7 14 -30 9 -29 -5 -41 6 -20 19
5 3 10 11 10 17 0 6 -6 6 -15 -2 -20 -16 -39 -1 -33 26 2 12 12 19 27 19 13 0
26 6 28 13 3 7 -4 12 -18 12 -22 0 -22 0 -4 20 24 27 9 42 -42 44 l-38 1 -1
47 c-2 57 12 65 64 38 23 -12 30 -20 19 -20 -11 0 -17 -5 -14 -12 5 -14 125
-14 138 0 4 4 1 32 -7 62 -15 52 -38 146 -49 200 -9 41 -35 124 -46 142 -5 10
-9 28 -9 41 0 13 -3 27 -7 31 -4 4 -8 13 -8 19 -1 25 -28 127 -34 127 -6 0
-104 -81 -159 -132 -50 -47 -48 -27 4 31 34 38 41 51 28 51 -16 0 -16 1 -1 18
10 10 17 25 18 33 0 8 9 28 19 44 25 40 68 125 63 125 -17 0 -92 -101 -198
-262 -37 -58 -54 -74 -40 -40 4 9 8 25 10 34 2 10 19 38 37 64 18 25 40 56 47
68 8 11 39 52 69 89 30 37 53 70 50 72 -2 3 -24 -13 -47 -35 -23 -22 -46 -40
-50 -40 -12 0 -97 -93 -120 -132 -12 -21 -33 -46 -47 -57 -13 -10 -24 -28 -24
-40 0 -12 -6 -21 -14 -21 -24 0 -28 -17 -9 -36 17 -17 17 -17 1 -11 -11 4 -21
0 -27 -10 -7 -14 -11 -10 -19 19 -7 25 -6 62 4 125 11 78 24 121 59 207 7 16
5 18 -10 12 -23 -8 7 21 80 79 l50 40 -70 5 c-39 3 -98 4 -133 1 l-63 -3 2
-105 c1 -83 5 -106 17 -110 13 -5 13 -8 -2 -19 -9 -6 -19 -29 -22 -50 -4 -29
-3 -35 5 -24 8 11 10 3 9 -33 -2 -27 -4 -44 -6 -38 -2 6 -13 11 -24 11 -15 0
-18 4 -13 18 11 24 23 112 16 116 -3 2 -19 1 -36 -1 -16 -2 -49 -6 -71 -9 -52
-7 -59 2 -60 86 -1 36 -4 109 -9 164 l-7 98 -30 -6 c-16 -3 -39 -1 -50 5 -20
11 -20 11 6 28 14 10 23 21 19 24 -7 7 9 10 42 8 15 -2 17 0 6 7 -7 5 -9 12
-4 15 5 4 8 20 5 36 -4 31 -7 30 63 44 11 3 -25 5 -81 6 -56 0 -136 4 -178 7
l-77 7 4 -314z m267 102 c0 -33 -53 -45 -72 -17 -14 21 -8 26 32 26 22 0 40
-4 40 -9z m-123 -110 c-15 -6 -30 17 -23 35 6 16 8 16 20 -6 6 -14 8 -27 3
-29z m112 -50 c8 -5 9 -11 3 -15 -6 -4 -9 -15 -7 -26 2 -11 0 -22 -6 -25 -5
-4 -9 1 -9 9 0 9 -4 16 -9 16 -10 0 -21 36 -13 44 8 8 25 7 41 -3z m11 -151
c0 -5 -7 -10 -15 -10 -8 0 -15 5 -15 10 0 6 7 10 15 10 8 0 15 -4 15 -10z
m660 -136 c-8 -8 -23 -20 -34 -25 -13 -7 -9 -1 9 15 34 29 43 33 25 10z m39
-32 c-5 -2 -16 -1 -25 2 -12 5 -13 8 -2 20 11 11 15 11 25 -3 7 -9 8 -17 2
-19z m-317 -4 c-7 -7 -12 -8 -12 -2 0 14 12 26 19 19 2 -3 -1 -11 -7 -17z
m-402 -17 c0 -12 -18 -18 -76 -26 -42 -5 -46 -4 -29 6 11 7 36 14 55 16 19 2
36 6 39 9 7 6 11 5 11 -5z m290 -13 c0 -14 -15 -40 -21 -39 -2 0 -14 -2 -27
-6 -19 -5 -20 -8 -10 -21 11 -14 9 -15 -22 -9 -18 4 -36 11 -40 16 -3 4 -27
11 -53 15 -27 4 -47 9 -45 11 2 3 45 5 96 6 82 2 92 4 92 21 0 10 7 18 15 18
8 0 15 -6 15 -12z m457 -28 c2 -19 5 -44 6 -55 1 -14 -13 -28 -53 -52 -30 -18
-66 -41 -78 -50 -13 -10 -43 -29 -65 -42 l-42 -25 23 25 c12 14 19 29 15 34
-5 4 -3 5 4 1 7 -4 17 2 23 14 6 11 18 20 26 20 12 0 15 7 12 30 -3 17 -1 30
4 30 4 0 8 9 8 21 0 18 -4 20 -32 14 -17 -4 -40 -17 -50 -29 -9 -11 -17 -16
-18 -10 0 5 5 15 12 22 26 26 -16 12 -45 -15 -17 -16 -26 -21 -22 -13 15 29
49 60 64 60 9 1 54 14 101 30 47 15 89 27 94 26 5 -1 11 -18 13 -36z m-522
-69 c6 -11 -33 -26 -43 -16 -4 3 0 10 8 15 19 12 27 12 35 1z m370 -1 c3 -5 2
-10 -4 -10 -5 0 -13 5 -16 10 -3 6 -2 10 4 10 5 0 13 -4 16 -10z m-730 -10
c-11 -5 -29 -9 -40 -9 -17 -1 -17 1 -5 9 8 5 26 9 40 9 23 0 23 -1 5 -9z m914
-90 c10 0 18 -6 18 -12 0 -7 4 -21 8 -30 5 -13 2 -18 -10 -18 -11 0 -15 -5
-12 -14 3 -9 -3 -17 -16 -21 -20 -6 -20 -8 -4 -12 36 -9 67 -45 67 -77 0 -20
-3 -27 -10 -20 -6 6 -31 8 -60 4 -38 -5 -50 -3 -50 7 0 7 8 13 18 14 14 0 14
2 -3 9 -20 8 -20 9 1 9 11 1 29 8 40 16 24 18 20 18 -40 0 -48 -15 -72 -12
-61 6 4 5 15 9 26 9 10 0 19 4 19 9 0 12 -45 22 -64 15 -10 -4 -16 -1 -16 10
0 12 7 14 30 10 37 -8 41 15 8 46 l-22 20 31 0 c41 0 64 9 56 23 -4 7 0 8 11
4 10 -4 26 -7 35 -7z m-82 -176 c-3 -3 -12 -4 -19 -1 -8 3 -5 6 6 6 11 1 17
-2 13 -5z m-7 -34 c-8 -5 -24 -10 -35 -10 -17 0 -17 -2 -5 -10 13 -8 13 -10
-1 -10 -17 0 -32 24 -22 34 4 3 22 6 42 6 27 0 32 -3 21 -10z m1014 -1009 c9
-13 -4 -41 -19 -41 -8 0 -10 9 -7 25 4 25 16 32 26 16z"/>
<path d="M975 1820 c3 -5 8 -10 11 -10 2 0 4 5 4 10 0 6 -5 10 -11 10 -5 0 -7
-4 -4 -10z"/>
<path d="M1055 1500 c3 -5 8 -10 11 -10 2 0 4 5 4 10 0 6 -5 10 -11 10 -5 0
-7 -4 -4 -10z"/>
<path d="M3090 2580 c0 -5 5 -10 11 -10 5 0 7 5 4 10 -3 6 -8 10 -11 10 -2 0
-4 -4 -4 -10z"/>
<path d="M2905 2565 c-83 -19 -87 -22 -70 -55 14 -27 34 -40 58 -40 7 0 6 5
-3 11 -11 8 -7 9 17 5 25 -4 35 -1 43 13 7 14 6 20 -5 25 -8 3 -17 1 -20 -4
-4 -6 -11 -5 -19 3 -11 10 -6 14 27 24 30 9 45 9 54 1 16 -13 17 4 1 20 -14
14 -15 14 -83 -3z"/>
<path d="M3660 2565 c-10 -13 -9 -15 8 -15 15 0 20 5 16 15 -4 8 -7 15 -9 15
-1 0 -8 -7 -15 -15z"/>
<path d="M3780 2561 c0 -12 5 -21 10 -21 6 0 10 6 10 14 0 8 -4 18 -10 21 -5
3 -10 -3 -10 -14z"/>
<path d="M4045 2570 c-3 -5 -1 -10 4 -10 6 0 11 5 11 10 0 6 -2 10 -4 10 -3 0
-8 -4 -11 -10z"/>
<path d="M443 2563 c26 -2 68 -2 95 0 26 2 4 3 -48 3 -52 0 -74 -1 -47 -3z"/>
<path d="M2198 2563 c7 -3 16 -2 19 1 4 3 -2 6 -13 5 -11 0 -14 -3 -6 -6z"/>
<path d="M2241 2566 c10 -10 129 -16 129 -7 0 7 -27 11 -67 11 -36 0 -64 -2
-62 -4z"/>
<path d="M3550 2560 c0 -5 5 -10 11 -10 5 0 7 5 4 10 -3 6 -8 10 -11 10 -2 0
-4 -4 -4 -10z"/>
<path d="M592 2448 c2 -70 7 -113 14 -115 8 -3 11 32 10 112 -1 86 -4 115 -14
115 -10 0 -12 -26 -10 -112z"/>
<path d="M1073 2553 c9 -2 25 -2 35 0 9 3 1 5 -18 5 -19 0 -27 -2 -17 -5z"/>
<path d="M3040 2549 c0 -5 5 -7 10 -4 6 3 10 8 10 11 0 2 -4 4 -10 4 -5 0 -10
-5 -10 -11z"/>
<path d="M4871 2548 c1 -7 5 -24 9 -38 l8 -25 1 28 c1 15 1 30 2 34 0 4 -4 9
-10 11 -6 2 -11 -2 -10 -10z"/>
<path d="M2218 2528 c-17 -17 -16 -18 37 -18 96 0 105 -6 106 -68 0 -26 4 -67
9 -92 8 -41 9 -39 5 19 -3 35 -5 83 -5 106 0 40 -2 42 -37 54 -62 19 -96 19
-115 -1z"/>
<path d="M4040 2538 c0 -5 18 -8 40 -8 22 0 40 3 40 8 0 4 -18 7 -40 7 -22 0
-40 -3 -40 -7z"/>
<path d="M4160 2529 c0 -5 19 -9 42 -9 49 0 47 5 -4 13 -21 3 -38 2 -38 -4z"/>
<path d="M4266 2531 c-4 -5 -2 -12 3 -15 5 -4 12 -2 15 3 4 5 2 12 -3 15 -5 4
-12 2 -15 -3z"/>
<path d="M2125 2509 c-4 -6 -5 -12 -2 -15 2 -3 7 2 10 11 7 17 1 20 -8 4z"/>
<path d="M3067 2504 c-4 -4 -7 -13 -7 -21 0 -15 46 -18 55 -3 3 6 38 10 77 10
39 0 69 2 67 4 -8 7 -185 16 -192 10z"/>
<path d="M2176 2475 c-13 -10 -23 -11 -31 -5 -20 16 -44 -20 -41 -62 1 -23 -4
-40 -11 -43 -8 -2 -18 -16 -23 -30 -8 -21 -16 -25 -48 -25 -38 0 -39 -1 -50
-51 -14 -60 -15 -89 -3 -89 14 0 32 26 23 35 -4 5 -2 5 4 2 6 -4 43 0 82 8 68
14 88 21 150 47 15 6 31 10 37 9 5 -2 6 1 2 5 -5 5 7 14 25 21 l33 13 -34 -6
c-23 -4 -31 -3 -27 5 4 6 4 16 0 22 -5 8 -9 8 -14 -1 -5 -8 -9 -6 -14 6 -4 10
-4 15 0 11 12 -11 34 14 34 39 0 30 16 39 30 17 10 -16 11 -16 7 4 -3 13 -1
26 4 29 5 3 9 16 9 30 0 23 -3 24 -62 24 -39 -1 -70 -6 -82 -15z m4 -45 c9 -6
10 -10 3 -10 -6 0 -18 -3 -27 -6 -11 -4 -16 -1 -16 10 0 18 17 21 40 6z m23
-57 c15 -9 -5 -23 -32 -23 -33 0 -42 7 -34 26 5 13 41 11 66 -3z m49 -85 c-6
-6 -16 -7 -22 -3 -9 6 -9 9 1 16 17 10 34 0 21 -13z"/>
<path d="M4260 2456 c0 -20 25 -66 37 -66 10 0 13 6 9 16 -3 9 -6 24 -6 35 0
12 -7 19 -20 19 -11 0 -20 -2 -20 -4z"/>
<path d="M4683 2443 c-8 -3 -9 -10 -3 -21 5 -9 11 -26 15 -37 6 -19 7 -19 16
-2 20 35 3 73 -28 60z"/>
<path d="M4871 2392 c1 -31 5 -70 9 -87 6 -22 8 -12 8 41 -1 39 2 76 5 82 4 5
0 12 -8 16 -12 4 -15 -5 -14 -52z"/>
<path d="M2820 2406 c0 -35 -17 -66 -35 -66 -8 0 -15 -4 -15 -10 0 -5 8 -10
19 -10 14 0 18 -6 16 -25 -2 -14 1 -23 6 -19 5 3 7 9 4 13 -5 8 15 30 50 57
14 11 16 17 7 20 -6 3 -10 9 -7 13 2 5 -7 19 -20 31 l-25 23 0 -27z"/>
<path d="M2950 2420 c0 -6 -18 -30 -40 -52 -22 -23 -40 -45 -40 -49 0 -4 -8
-9 -17 -11 -20 -4 80 -44 251 -103 l118 -40 34 -65 c19 -36 44 -93 55 -127 16
-47 26 -63 40 -63 23 0 25 -16 2 -28 -15 -9 -15 -25 1 -223 16 -195 46 -369
65 -369 3 0 42 11 86 25 84 26 125 31 125 16 0 -10 -26 -20 -147 -51 l-83 -22
1 -47 c2 -62 -29 -122 -83 -160 -24 -17 -58 -44 -77 -61 -36 -32 -46 -36 -56
-20 -3 6 0 10 7 10 20 0 50 37 35 44 -7 2 -2 8 11 11 29 10 28 21 -3 29 -15 4
-30 18 -36 34 -6 15 -22 39 -36 54 -23 24 -24 28 -9 34 9 3 25 4 36 1 13 -3
20 0 20 8 0 8 8 16 18 18 13 4 11 5 -5 6 -13 0 -23 -3 -23 -9 0 -5 -13 -10
-28 -10 -15 0 -32 -4 -38 -9 -5 -5 -18 -11 -29 -14 -17 -4 -17 -5 4 -6 38 -2
81 -58 81 -107 0 -36 -5 -45 -35 -68 -19 -15 -35 -31 -35 -37 0 -5 16 -9 35
-9 24 0 35 -5 35 -14 0 -17 38 -4 704 228 231 80 422 146 425 146 3 0 -1 4 -9
10 -11 7 -9 11 13 19 52 20 80 25 73 12 -10 -15 -8 -15 86 20 133 49 154 58
141 58 -7 1 -13 8 -13 16 0 12 -13 15 -57 14 -32 0 -52 -3 -45 -6 10 -4 10 -8
1 -19 -17 -21 -34 -17 -47 12 -7 14 -26 30 -42 36 -19 6 -30 17 -30 29 0 16
-4 17 -26 9 -31 -12 -34 -12 -34 -1 0 5 17 12 38 16 20 3 57 15 81 26 24 10
52 19 62 19 17 0 19 7 16 48 -1 26 -6 53 -11 61 -9 14 11 33 29 27 6 -1 10
-40 10 -87 l0 -84 38 -3 c21 -2 44 1 50 7 26 21 214 -19 201 -42 -5 -8 -4 -9
4 -2 6 6 12 21 14 35 2 17 10 26 26 28 32 5 21 27 -12 25 -21 -1 -26 2 -26 23
0 13 5 25 10 25 6 1 15 3 20 4 6 1 14 3 20 4 10 1 7 113 -6 189 -8 48 -19 57
-86 64 -52 6 -51 7 -48 -54 1 -20 -3 -45 -9 -56 -13 -24 1 -31 57 -33 l37 -1
-35 -7 c-57 -12 -78 -28 -83 -64 -2 -17 -5 14 -5 71 -2 101 -2 102 -24 97 -13
-3 -33 -7 -45 -8 -13 0 -23 -4 -23 -7 0 -3 -12 -7 -26 -8 -38 -3 -44 -10 -44
-46 0 -26 -5 -35 -22 -40 -37 -9 -38 -8 -38 34 0 24 5 40 12 40 6 0 8 3 5 7
-4 4 -20 -3 -36 -14 -31 -24 -129 -44 -117 -24 9 14 -13 14 -86 -1 -35 -7 -58
-17 -58 -25 0 -7 -4 -13 -10 -13 -5 0 -10 5 -10 11 0 7 -14 9 -37 6 -21 -3
-63 -9 -93 -12 -74 -9 -113 -24 -100 -39 7 -9 -13 -17 -78 -29 -114 -22 -174
-28 -167 -17 3 6 -1 7 -9 4 -9 -3 -16 -10 -16 -15 0 -5 -9 -9 -20 -9 -11 0
-20 7 -20 15 0 8 -7 15 -15 15 -8 0 -15 -9 -15 -20 0 -15 -7 -20 -25 -20 -14
0 -25 4 -25 9 0 5 -18 7 -40 4 -25 -4 -40 -2 -40 5 0 6 21 14 48 17 26 4 63
11 82 17 19 5 57 12 85 14 27 3 52 7 54 10 3 3 4 20 3 38 -2 31 0 34 35 40 63
10 73 8 73 -15 0 -19 -4 -21 -35 -16 -30 5 -35 3 -35 -14 0 -22 17 -24 90 -8
l50 11 0 43 c0 24 3 50 6 59 4 11 1 16 -11 16 -9 0 -19 9 -22 20 -6 24 -21 26
-37 5 -8 -12 -40 -16 -139 -19 -96 -3 -136 -8 -160 -21 -26 -13 -38 -14 -61
-6 -22 9 -26 14 -17 25 8 10 5 18 -14 36 -19 18 -22 27 -14 41 13 24 36 24 44
0 5 -16 13 -18 48 -14 23 3 49 12 58 19 18 16 43 19 34 4 -3 -5 0 -10 9 -10 8
0 17 -6 20 -12 10 -26 38 25 32 61 -5 30 -3 33 17 26 35 -11 56 -11 57 0 1 6
-23 15 -52 22 -29 6 -45 12 -35 12 10 1 17 9 17 22 l0 20 -30 -21 c-25 -18
-28 -25 -23 -52 6 -30 5 -31 -23 -24 -35 9 -31 5 -39 39 -5 19 -3 27 6 29 8 0
-6 4 -31 7 -32 4 -46 11 -48 23 -2 13 1 16 12 12 13 -5 16 1 16 26 0 26 5 34
30 43 25 9 28 15 23 36 -6 26 -51 68 -66 63 -4 -1 -17 3 -29 9 -13 7 -18 7
-14 1 14 -24 -56 -41 -81 -20 -22 18 -73 19 -73 2 0 -8 -4 -14 -10 -14 -5 0
-10 7 -10 15 0 9 -6 18 -14 21 -8 3 -20 18 -26 34 -15 37 -32 42 -133 40 -109
-3 -104 -4 -120 27 -11 21 -23 27 -56 30 -25 3 -41 0 -41 -7z m30 -60 c0 -6
-12 -9 -26 -8 -23 2 -23 4 -8 15 17 13 34 9 34 -7z m40 0 c0 -11 -4 -20 -10
-20 -5 0 -10 9 -10 20 0 11 5 20 10 20 6 0 10 -9 10 -20z m250 -29 c0 -12
-128 -19 -144 -8 -18 12 13 26 57 25 21 0 41 2 44 5 7 8 43 -11 43 -22z m-175
-1 c3 -5 -3 -10 -14 -10 -12 0 -21 5 -21 10 0 6 6 10 14 10 8 0 18 -4 21 -10z
m-125 -20 c0 -5 -20 -10 -45 -10 -25 0 -45 5 -45 10 0 6 20 10 45 10 25 0 45
-4 45 -10z m45 0 c3 -5 17 -10 31 -10 13 0 24 -4 24 -10 0 -15 -49 -12 -66 4
-8 8 -14 17 -14 20 0 10 18 7 25 -4z m165 -14 c0 -11 -19 -15 -25 -6 -3 5 1
10 9 10 9 0 16 -2 16 -4z m343 -65 c6 -6 25 -11 42 -12 59 -1 -12 -19 -95 -24
-67 -3 -77 -1 -88 16 -7 11 -11 23 -8 28 7 11 136 5 149 -8z m-33 -116 c0 -30
3 -54 8 -54 18 3 32 -2 32 -11 0 -5 -22 -10 -50 -10 -27 0 -50 5 -50 10 0 6 5
10 12 10 8 0 9 3 2 10 -5 5 -8 30 -6 55 4 40 7 45 28 45 22 0 24 -4 24 -55z
m-160 25 c0 -5 9 -19 21 -31 11 -11 18 -23 15 -27 -4 -3 -12 0 -18 6 -17 17
-38 15 -38 -5 0 -13 -3 -14 -12 -5 -9 9 -9 15 0 24 7 7 12 20 12 30 0 10 5 18
10 18 6 0 10 -4 10 -10z m50 6 c0 -3 -4 -8 -10 -11 -5 -3 -10 -1 -10 4 0 6 5
11 10 11 6 0 10 -2 10 -4z m50 -20 c0 -3 -4 -8 -10 -11 -5 -3 -10 -1 -10 4 0
6 5 11 10 11 6 0 10 -2 10 -4z m-110 -81 c0 -8 -4 -15 -10 -15 -5 0 -10 7 -10
15 0 8 5 15 10 15 6 0 10 -7 10 -15z m60 1 c0 -11 -19 -15 -25 -6 -3 5 1 10 9
10 9 0 16 -2 16 -4z m110 -46 c0 -5 -2 -10 -4 -10 -3 0 -8 5 -11 10 -3 6 -1
10 4 10 6 0 11 -4 11 -10z m-40 -75 c0 -8 -7 -15 -15 -15 -8 0 -15 7 -15 15 0
8 7 15 15 15 8 0 15 -7 15 -15z m25 -76 c10 -15 5 -17 -38 -22 -41 -5 -54 18
-14 26 39 8 46 7 52 -4z m378 -20 c-13 -13 -89 -8 -86 6 3 13 75 23 88 13 5
-5 5 -12 -2 -19z m-316 -55 c-3 -3 -12 -4 -19 -1 -8 3 -5 6 6 6 11 1 17 -2 13
-5z m153 -19 c13 -16 5 -38 -13 -32 -13 4 -20 47 -8 47 5 0 14 -7 21 -15z
m-288 -80 c3 -29 1 -35 -14 -35 -14 0 -18 8 -18 33 0 59 25 61 32 2z m865 19
c-3 -3 -12 -4 -19 -1 -8 3 -5 6 6 6 11 1 17 -2 13 -5z m-787 -38 c0 -2 -9 -6
-20 -9 -11 -3 -20 -1 -20 4 0 5 9 9 20 9 11 0 20 -2 20 -4z m600 -24 c0 -13
-12 -22 -39 -30 -54 -17 -61 -15 -61 11 0 33 7 37 57 37 35 0 43 -3 43 -18z
m-163 -8 c-3 -3 -12 -4 -19 -1 -8 3 -5 6 6 6 11 1 17 -2 13 -5z m383 -113 c0
-16 -20 -24 -130 -53 -123 -32 -120 -32 -120 -14 0 8 18 18 43 25 23 6 74 20
112 30 81 23 95 24 95 12z m-310 -90 c0 -5 -53 -23 -117 -41 -65 -17 -130 -35
-145 -40 -17 -6 -30 -5 -34 1 -3 6 -4 12 -2 14 2 2 57 19 123 38 122 36 175
44 175 28z m-780 -421 c0 -5 -2 -10 -4 -10 -3 0 -8 5 -11 10 -3 6 -1 10 4 10
6 0 11 -4 11 -10z"/>
<path d="M2021 2394 c0 -11 3 -14 6 -6 3 7 2 16 -1 19 -3 4 -6 -2 -5 -13z"/>
<path d="M5862 2340 c0 -19 2 -27 5 -17 2 9 2 25 0 35 -3 9 -5 1 -5 -18z"/>
<path d="M4446 2335 c4 -17 2 -25 -7 -25 -7 0 -10 -2 -7 -5 3 -3 13 -3 22 1
21 8 22 54 1 54 -11 0 -14 -7 -9 -25z"/>
<path d="M5497 2331 c-3 -12 -1 -21 3 -21 14 0 19 15 11 29 -6 9 -10 7 -14 -8z"/>
<path d="M5065 2329 c4 -5 18 -14 31 -19 22 -9 24 -15 24 -68 0 -60 -11 -82
-42 -82 -13 0 -18 -8 -18 -26 0 -14 4 -23 10 -19 6 3 10 12 10 20 0 9 20 15
61 20 54 6 63 5 80 -14 10 -11 19 -34 19 -51 0 -32 11 -36 58 -24 16 5 22 14
22 35 0 16 -4 29 -10 29 -5 0 -10 -9 -10 -20 0 -22 -26 -38 -39 -24 -5 5 -11
21 -15 35 -5 21 -2 28 14 32 11 3 20 10 20 16 0 11 -17 13 -105 15 l-40 1 0
50 c0 49 1 50 28 47 40 -4 25 16 -18 24 -19 3 -39 12 -46 20 -13 16 -43 19
-34 3z"/>
<path d="M1933 2313 c-3 -10 -7 -21 -9 -24 -2 -3 3 -6 10 -6 8 0 14 11 14 24
0 27 -6 30 -15 6z"/>
<path d="M1088 2303 c7 -3 16 -2 19 1 4 3 -2 6 -13 5 -11 0 -14 -3 -6 -6z"/>
<path d="M1836 2291 c-3 -4 1 -17 9 -27 14 -18 14 -18 15 9 0 26 -13 36 -24
18z"/>
<path d="M930 2259 c-19 -17 -26 -26 -15 -21 33 17 60 40 55 46 -3 3 -21 -9
-40 -25z"/>
<path d="M3805 2280 c-3 -5 0 -10 7 -10 7 0 23 -3 36 -6 16 -5 22 -2 22 10 0
18 -54 23 -65 6z"/>
<path d="M2730 2259 c0 -5 5 -7 10 -4 6 3 10 8 10 11 0 2 -4 4 -10 4 -5 0 -10
-5 -10 -11z"/>
<path d="M5992 2210 l3 -55 43 -1 c23 0 45 -4 48 -7 4 -3 1 -43 -4 -89 -6 -46
-14 -136 -17 -200 l-6 -118 31 0 30 0 0 259 0 259 -65 4 -66 3 3 -55z"/>
<path d="M2889 2228 c4 -28 6 -29 9 -9 2 13 0 27 -5 32 -6 6 -7 -3 -4 -23z"/>
<path d="M3673 2232 c6 -30 5 -33 -13 -27 -11 4 -20 2 -20 -4 0 -16 55 -14 69
2 8 11 5 19 -16 38 l-26 24 6 -33z"/>
<path d="M3773 2230 c-2 -24 2 -30 17 -30 23 0 26 25 6 46 -20 19 -21 18 -23
-16z"/>
<path d="M4267 2243 c-4 -3 -7 -11 -7 -17 0 -6 5 -5 12 2 6 6 9 14 7 17 -3 3
-9 2 -12 -2z"/>
<path d="M4393 2194 c0 -29 -5 -49 -14 -54 -7 -5 -10 -12 -6 -16 4 -4 12 -3
18 3 15 15 24 113 11 113 -6 0 -10 -21 -9 -46z"/>
<path d="M4545 2230 c-3 -5 -1 -10 4 -10 6 0 11 5 11 10 0 6 -2 10 -4 10 -3 0
-8 -4 -11 -10z"/>
<path d="M657 2214 c-16 -9 -27 -18 -24 -21 6 -5 67 24 67 32 0 8 -14 5 -43
-11z"/>
<path d="M4620 2217 c0 -8 9 -22 20 -32 23 -21 25 -16 8 20 -12 27 -28 34 -28
12z"/>
<path d="M4462 2200 c0 -14 2 -19 5 -12 2 6 2 18 0 25 -3 6 -5 1 -5 -13z"/>
<path d="M310 2200 c0 -5 5 -10 10 -10 6 0 10 5 10 10 0 6 -4 10 -10 10 -5 0
-10 -4 -10 -10z"/>
<path d="M5415 2200 c-3 -5 1 -10 9 -10 9 0 25 -9 37 -21 24 -24 84 -24 84 1
0 10 -13 16 -40 18 -22 2 -44 8 -49 13 -13 12 -33 12 -41 -1z"/>
<path d="M1035 2190 c3 -5 18 -10 33 -9 24 0 25 1 7 9 -28 12 -47 12 -40 0z"/>
<path d="M3713 2160 c0 -22 4 -40 8 -40 5 0 9 18 9 40 0 22 -4 40 -9 40 -4 0
-8 -18 -8 -40z"/>
<path d="M1110 2184 c0 -7 52 -25 57 -20 2 2 -10 8 -26 14 -17 6 -31 9 -31 6z"/>
<path d="M1892 2144 c13 -25 24 -40 26 -35 3 10 -35 81 -44 81 -2 0 6 -21 18
-46z"/>
<path d="M5955 2170 c3 -5 8 -10 11 -10 2 0 4 5 4 10 0 6 -5 10 -11 10 -5 0
-7 -4 -4 -10z"/>
<path d="M1080 2155 c7 -9 15 -13 17 -11 7 7 -7 26 -19 26 -6 0 -6 -6 2 -15z"/>
<path d="M5846 2147 c-22 -18 -31 -35 -35 -68 l-6 -44 -105 -2 c-124 -3 -150
-8 -150 -28 0 -18 -21 -20 -37 -4 -6 6 -16 8 -21 5 -12 -7 -3 -88 10 -97 5 -3
9 -10 8 -15 -1 -5 19 -24 45 -41 39 -28 43 -33 24 -32 -28 0 -115 62 -111 78
1 6 -4 11 -12 11 -7 0 -29 3 -47 6 l-34 6 30 -20 c39 -26 75 -60 75 -73 0 -5
-14 -12 -31 -16 -19 -4 -28 -10 -25 -19 3 -9 -6 -15 -30 -20 -40 -7 -56 -24
-22 -24 38 0 68 11 68 25 0 19 39 6 51 -17 6 -11 8 -26 5 -34 -6 -15 -36 -16
-47 -1 -3 5 -22 5 -42 2 -32 -6 -35 -10 -27 -25 7 -13 7 -21 0 -25 -6 -3 -15
6 -20 20 -9 23 -14 26 -40 20 -26 -6 -30 -4 -30 15 0 20 -4 22 -32 16 -39 -8
-47 -15 -28 -26 10 -7 -9 -10 -57 -10 -59 0 -74 3 -81 18 -5 9 -7 23 -4 31 6
18 -25 41 -54 41 -17 0 -23 -7 -26 -27 -2 -19 -10 -29 -26 -33 l-24 -5 27 -25
c19 -18 35 -24 57 -21 30 3 31 2 25 -31 -7 -48 3 -61 36 -49 17 7 27 18 27 30
0 13 5 19 14 15 20 -7 27 -44 17 -79 -7 -21 -10 -24 -10 -10 -1 11 -5 26 -10
34 -7 11 -13 7 -25 -17 -9 -17 -16 -42 -16 -55 0 -12 -5 -28 -12 -35 -9 -9 -9
-15 0 -24 8 -8 14 -5 21 14 26 70 190 50 209 -25 7 -28 13 -32 45 -35 39 -3
45 -15 23 -44 -16 -21 -46 -24 -46 -4 0 7 -7 19 -15 26 -25 20 -35 0 -22 -42
9 -30 16 -36 37 -35 20 2 26 -3 28 -26 2 -18 -2 -29 -12 -33 -9 -3 -16 -12
-16 -19 0 -26 -167 -26 -263 0 -21 6 -21 5 -4 -8 23 -19 86 -28 212 -33 55 -2
174 -14 264 -27 143 -21 170 -22 217 -11 30 7 54 8 54 3 0 -5 -17 -20 -39 -34
-37 -25 -38 -27 -45 -102 -3 -42 -6 -176 -6 -298 0 -262 -7 -348 -26 -341 -8
3 -14 2 -14 -2 0 -7 192 -59 255 -69 11 -2 50 -12 86 -23 36 -11 71 -20 78
-20 8 0 11 184 11 710 l0 711 -32 -2 c-18 -1 -45 2 -61 6 -23 6 -26 4 -21 -9
4 -12 0 -16 -15 -16 -12 0 -21 6 -21 15 0 11 -11 15 -36 15 -23 0 -33 -4 -28
-11 4 -8 -7 -10 -39 -7 -33 4 -48 1 -51 -9 -7 -17 -31 -17 -46 2 -9 11 -9 15
-1 15 7 0 9 5 6 11 -5 6 -11 4 -19 -6 -14 -19 -93 -37 -102 -23 -3 5 -17 2
-31 -7 -14 -10 -23 -13 -20 -8 4 6 2 27 -4 47 -8 30 -14 36 -30 31 -14 -5 -17
-3 -13 9 4 11 11 13 22 7 11 -6 28 -3 48 8 17 9 47 25 67 35 41 22 42 24 22
49 -9 13 -20 17 -33 13 -26 -8 -38 9 -14 20 9 4 20 6 25 6 4 -1 7 2 7 6 0 14
48 32 84 32 20 0 40 8 51 20 10 12 25 18 32 16 7 -3 17 3 22 12 9 14 11 12 17
-16 11 -52 28 -53 19 -1 -4 24 -9 64 -11 89 -5 62 -18 113 -29 117 -6 1 -23
-8 -39 -20z m99 -457 c3 -5 2 -10 -4 -10 -5 0 -13 5 -16 10 -3 6 -2 10 4 10 5
0 13 -4 16 -10z m-51 -25 c20 -9 34 -20 31 -24 -3 -5 1 -12 7 -15 7 -3 -12 -4
-42 -3 -30 1 -58 7 -62 12 -4 6 -8 2 -8 -7 0 -10 1 -18 3 -18 58 -10 272 -28
278 -24 5 3 9 -42 9 -100 0 -87 -3 -106 -15 -106 -26 0 -85 -33 -85 -48 0 -8
-11 -23 -25 -34 -14 -11 -25 -30 -25 -44 0 -21 -3 -24 -26 -18 -16 4 -29 1
-37 -9 -7 -8 -25 -22 -42 -32 -30 -17 -30 -17 4 13 32 30 33 30 12 41 -19 11
-21 20 -21 107 0 91 -1 95 -24 104 -13 5 -27 14 -31 19 -3 6 -28 11 -56 11
l-49 0 0 60 c0 45 -4 62 -15 66 -8 4 -15 13 -15 22 0 12 11 14 65 9 56 -5 68
-4 83 13 21 23 40 24 86 5z m214 -25 c-2 -22 -7 -30 -21 -30 -10 0 -16 4 -13
9 4 5 -6 14 -21 19 l-28 10 33 1 c17 1 32 6 32 11 0 6 5 10 10 10 6 0 9 -13 8
-30z m-878 -5 c-32 -18 -40 -18 -40 0 0 10 10 15 33 15 l32 -1 -25 -14z m757
9 c-3 -3 -12 -4 -19 -1 -8 3 -5 6 6 6 11 1 17 -2 13 -5z m-354 -169 c26 -4 47
-11 47 -17 0 -11 -142 -4 -161 8 -18 11 2 23 34 19 17 -3 53 -7 80 -10z m-70
-86 c40 -7 79 -18 88 -25 8 -8 23 -14 32 -14 9 0 17 -6 17 -13 0 -18 -56 -21
-63 -3 -4 9 -24 14 -64 15 -85 1 -113 9 -113 32 0 22 7 23 103 8z m-119 -8
c12 -19 -5 -38 -30 -33 -27 5 -30 12 -12 30 14 14 35 16 42 3z m579 -108 c-7
-2 -19 -2 -25 0 -7 3 -2 5 12 5 14 0 19 -2 13 -5z m-430 -13 c15 0 27 -4 27
-10 0 -11 -113 -2 -145 12 -13 5 -1 7 35 3 30 -3 67 -5 83 -5z m410 -304 c25
-5 29 -9 17 -16 -13 -9 -13 -12 3 -24 19 -15 23 -41 7 -51 -6 -3 -10 4 -11 17
0 13 -3 17 -6 11 -2 -7 -11 -13 -19 -13 -8 0 -23 -9 -34 -20 -15 -15 -20 -16
-20 -6 0 8 9 17 19 21 37 11 30 54 -10 67 -9 3 -9 9 0 25 14 27 15 55 1 33 -7
-11 -10 3 -10 48 0 35 4 62 10 62 20 0 9 19 -12 22 -22 4 -74 -24 -90 -47 -5
-6 -8 -6 -8 2 0 13 67 63 85 63 6 0 17 9 25 20 14 19 15 10 18 -93 l3 -115 32
-6z m-23 -413 c-1 -5 -8 -19 -16 -33 -8 -14 -13 -17 -10 -7 3 10 6 25 6 33 0
8 5 14 10 14 6 0 10 -3 10 -7z m45 -113 c3 -5 1 -10 -4 -10 -6 0 -11 5 -11 10
0 6 2 10 4 10 3 0 8 -4 11 -10z m-75 -20 c0 -11 -4 -20 -9 -20 -5 0 -7 9 -4
20 3 11 7 20 9 20 2 0 4 -9 4 -20z m0 -45 c0 -8 -4 -15 -10 -15 -5 0 -10 7
-10 15 0 8 5 15 10 15 6 0 10 -7 10 -15z m30 -19 c0 -3 -4 -8 -10 -11 -5 -3
-10 -1 -10 4 0 6 5 11 10 11 6 0 10 -2 10 -4z"/>
<path d="M4580 2148 c0 -8 7 -21 15 -28 17 -14 20 -41 6 -55 -34 -38 -10 -102
30 -77 10 7 26 12 34 12 8 0 15 4 15 9 0 5 -9 7 -20 4 -15 -4 -20 0 -20 13 0
22 20 57 20 37 0 -7 5 -13 10 -13 6 0 10 13 10 30 0 25 -4 29 -22 27 -17 -1
-24 4 -26 21 -4 23 -22 31 -22 10 0 -8 -7 -5 -15 6 -12 16 -15 17 -15 4z"/>
<path d="M2080 2141 c0 -5 -10 -13 -22 -17 -13 -4 -29 -15 -36 -26 -7 -10 -18
-16 -23 -13 -5 4 -9 0 -9 -7 -1 -7 -8 0 -16 15 -17 31 -38 27 -28 -6 4 -12 22
-54 40 -93 19 -38 46 -116 60 -172 20 -75 31 -102 43 -102 13 0 13 -2 2 -9
-10 -7 -11 -16 -3 -42 21 -68 34 -185 28 -249 -3 -36 -1 -90 5 -120 6 -30 12
-67 13 -83 2 -15 7 -37 13 -50 26 -57 33 -91 20 -99 -6 -4 -7 -8 -2 -8 6 0 15
-8 22 -18 10 -17 8 -18 -11 -15 -21 4 -21 4 -12 -90 10 -109 1 -101 141 -117
44 -5 114 -14 155 -19 41 -5 118 -10 171 -10 93 -1 96 0 107 24 6 14 17 25 23
25 6 0 9 6 6 14 -9 24 4 26 31 6 13 -11 35 -20 49 -20 13 0 35 -7 49 -16 23
-16 26 -16 47 4 12 11 42 26 67 33 44 12 87 39 62 39 -8 0 -9 10 -5 32 5 26 4
30 -10 25 -15 -6 -16 -1 -11 31 5 34 3 39 -21 50 -14 7 -32 12 -40 12 -8 0
-19 8 -24 18 -9 14 -10 14 -11 2 0 -15 -79 -100 -92 -100 -3 0 -9 11 -12 25
-4 14 -11 25 -17 25 -12 0 -70 -39 -81 -55 -5 -6 -8 -6 -8 2 0 17 74 65 104
67 13 0 22 4 20 8 -2 3 1 8 7 10 6 2 0 14 -12 28 l-23 25 -52 -51 c-43 -43
-114 -85 -114 -68 0 14 89 86 112 91 16 3 28 7 28 9 0 4 -16 34 -28 53 -1 3
-9 -4 -17 -15 -8 -11 -15 -14 -15 -6 0 18 -11 15 -45 -13 -16 -13 -40 -32 -52
-42 -13 -10 -23 -24 -23 -30 0 -20 -20 -15 -21 5 -1 38 -9 95 -13 99 -3 3 -8
-12 -11 -33 -4 -22 -9 -46 -12 -54 -8 -25 -59 45 -116 160 -44 90 -52 101 -55
76 -2 -15 1 -40 6 -55 6 -14 13 -51 17 -81 7 -62 4 -60 -53 40 -17 30 -43 64
-58 75 -36 26 -51 42 -56 57 -5 15 -45 -23 -50 -49 -2 -10 -8 12 -12 49 -9 80
15 252 74 538 50 237 51 248 40 255 -6 3 -7 -1 -4 -9 5 -13 0 -15 -26 -12 -21
2 -30 0 -27 -9 3 -6 0 -12 -6 -12 -7 -1 -26 -7 -44 -14 -29 -12 -34 -11 -51 9
-12 13 -26 20 -35 16 -19 -7 -40 27 -31 50 3 9 3 16 0 16 -3 0 -6 -4 -6 -9z
m-5 -41 c3 -5 -1 -10 -9 -10 -8 0 -18 5 -21 10 -3 6 1 10 9 10 8 0 18 -4 21
-10z m185 -144 c0 -33 -2 -34 -34 -32 -46 4 -60 14 -45 32 16 19 46 18 58 -3
9 -15 10 -14 11 10 0 15 2 27 5 27 3 0 5 -15 5 -34z m-16 -122 c-2 -44 -7 -59
-26 -75 l-23 -21 -3 36 c-2 21 4 46 15 63 14 22 35 50 39 53 0 0 -1 -25 -2
-56z m46 -615 c0 -6 -4 -7 -10 -4 -5 3 -10 11 -10 16 0 6 5 7 10 4 6 -3 10
-11 10 -16z m525 -169 c3 -5 1 -10 -4 -10 -6 0 -11 5 -11 10 0 6 2 10 4 10 3
0 8 -4 11 -10z m136 -43 c-9 -22 -7 -24 10 -20 10 3 19 0 19 -6 0 -6 -6 -11
-14 -11 -8 0 -16 -4 -18 -8 -4 -10 -98 -65 -98 -58 0 12 34 45 42 40 4 -3 8 2
8 10 0 9 5 16 10 16 6 0 10 5 10 11 0 11 33 59 38 54 1 -1 -2 -14 -7 -28z
m-397 -70 c36 -21 58 -27 78 -23 20 4 27 2 22 -5 -4 -6 0 -16 7 -21 31 -21
-69 5 -124 33 -32 16 -64 29 -72 29 -18 0 -20 17 -2 23 16 5 32 -1 91 -36z
m481 3 c3 -6 -1 -7 -9 -4 -18 7 -21 14 -7 14 6 0 13 -4 16 -10z m-45 -31 c-17
-11 -36 -19 -43 -19 -6 0 0 8 16 18 15 9 27 20 27 24 0 4 7 5 16 1 12 -4 8
-10 -16 -24z"/>
<path d="M4980 2135 c0 -8 4 -15 9 -15 5 0 14 7 21 15 10 13 9 15 -9 15 -12 0
-21 -6 -21 -15z"/>
<path d="M5110 2116 c0 -9 5 -16 10 -16 6 0 10 -11 10 -25 0 -26 9 -29 48 -19
16 5 22 14 22 35 0 33 -19 49 -32 25 -8 -15 -11 -15 -33 0 -23 15 -25 15 -25
0z"/>
<path d="M6022 2010 c-13 -63 -26 -124 -29 -135 -3 -11 -2 -17 1 -14 11 10 58
228 54 247 -2 9 -14 -35 -26 -98z"/>
<path d="M2907 2104 c-12 -12 -8 -36 5 -28 7 5 9 2 5 -9 -10 -27 38 -165 67
-188 14 -11 23 -26 20 -33 -7 -18 12 -30 22 -15 5 8 3 9 -6 4 -10 -6 -11 -4
-6 11 16 38 18 54 7 54 -5 0 -8 -7 -5 -15 9 -23 -9 -18 -24 6 -11 18 -11 20 0
17 7 -3 23 -1 35 3 17 6 21 5 16 -6 -4 -12 4 -15 36 -15 38 0 42 -3 57 -37 9
-21 18 -56 20 -78 3 -35 2 -36 -5 -10 -7 28 -8 27 -16 -22 -5 -37 -12 -53 -23
-53 -11 0 -12 -3 -3 -14 10 -12 7 -15 -21 -19 l-33 -4 31 -1 c29 -2 32 -5 32
-34 2 -76 12 -157 26 -208 19 -68 20 -99 2 -119 -16 -19 -28 -65 -20 -74 4 -4
16 -1 27 5 30 16 116 10 151 -10 16 -9 35 -33 43 -52 12 -32 13 -32 7 -5 -3
17 -20 45 -37 64 -18 19 -25 32 -17 28 8 -3 24 -9 35 -13 19 -8 19 -7 3 10
-10 9 -18 19 -18 20 0 6 36 0 48 -8 27 -16 25 6 -6 67 -18 35 -32 71 -32 80 0
8 -4 19 -10 22 -5 3 -10 28 -10 55 0 26 -4 50 -10 52 -5 2 -11 22 -12 46 -1
23 -5 42 -9 42 -5 0 -11 11 -15 25 -3 14 -10 25 -15 25 -5 0 -9 27 -9 60 0 53
-2 60 -20 60 -15 0 -20 -7 -20 -24 0 -43 -18 -38 -24 7 -19 124 -19 134 3 140
14 3 21 0 21 -8 0 -14 37 -45 52 -45 11 0 10 58 -2 99 -5 19 -26 52 -47 73
-30 31 -44 38 -75 38 -25 0 -41 -5 -44 -15 -4 -8 -15 -15 -25 -15 -10 0 -19
-7 -19 -15 0 -11 -12 -15 -44 -15 -34 0 -46 -4 -49 -17 -2 -10 -3 -8 -2 5 1
12 -2 22 -7 22 -5 0 -1 15 7 33 l16 32 -21 -25 c-15 -17 -20 -19 -16 -8 6 21
-7 62 -17 52z m109 -145 c10 -17 -13 -36 -27 -22 -12 12 -4 33 11 33 5 0 12
-5 16 -11z"/>
<path d="M4421 2067 c-1 -47 -1 -47 -31 -42 -25 4 -30 2 -30 -14 0 -11 -3 -26
-6 -35 -8 -20 23 -33 39 -17 9 9 9 14 -2 20 -11 7 -10 11 7 20 16 8 21 7 26
-5 3 -9 4 -20 0 -25 -3 -5 4 -9 15 -9 12 0 21 7 21 15 0 19 29 20 36 1 6 -15
54 -19 54 -5 0 5 -7 9 -15 9 -12 0 -15 13 -15 56 0 40 -4 55 -12 52 -7 -3 -14
-19 -16 -37 -4 -36 -25 -38 -30 -3 -2 12 -10 22 -17 22 -7 0 -16 10 -18 23 -2
12 -5 1 -6 -26z"/>
<path d="M6006 2093 c-6 -14 -5 -15 5 -6 7 7 10 15 7 18 -3 3 -9 -2 -12 -12z"/>
<path d="M4000 2062 c0 -19 23 -31 42 -21 18 10 32 -4 27 -27 -4 -21 2 -44 11
-44 6 0 10 23 10 50 l0 50 -45 0 c-25 0 -45 -4 -45 -8z"/>
<path d="M4812 2050 c0 -14 2 -19 5 -12 2 6 2 18 0 25 -3 6 -5 1 -5 -13z"/>
<path d="M4855 2035 c-5 -22 -8 -43 -7 -47 1 -4 -18 -5 -42 -2 -26 4 -46 2
-50 -4 -9 -16 11 -25 55 -25 28 0 39 -4 39 -15 0 -12 8 -13 38 -7 97 18 91 19
85 -4 -7 -28 18 -28 36 1 11 18 11 22 -5 32 -20 11 -26 12 -91 14 l-42 2 -3
48 -3 47 -10 -40z"/>
<path d="M6002 2040 c0 -19 2 -27 5 -17 2 9 2 25 0 35 -3 9 -5 1 -5 -18z"/>
<path d="M672 2023 c-7 -12 -12 -32 -11 -45 1 -20 3 -18 15 11 17 38 13 67 -4
34z"/>
<path d="M1200 1990 c-8 -5 -10 -10 -5 -10 6 0 17 5 25 10 8 5 11 10 5 10 -5
0 -17 -5 -25 -10z"/>
<path d="M5120 1989 c0 -5 5 -7 10 -4 6 3 10 8 10 11 0 2 -4 4 -10 4 -5 0 -10
-5 -10 -11z"/>
<path d="M1250 1962 c0 -30 31 -101 37 -84 3 7 -2 24 -11 38 -9 13 -15 28 -12
32 3 4 1 14 -5 22 -7 12 -9 10 -9 -8z"/>
<path d="M5230 1950 c0 -5 7 -10 15 -10 8 0 15 5 15 10 0 6 -7 10 -15 10 -8 0
-15 -4 -15 -10z"/>
<path d="M5350 1946 c0 -8 5 -18 10 -21 6 -3 10 1 10 9 0 8 -4 18 -10 21 -5 3
-10 -1 -10 -9z"/>
<path d="M5460 1950 c0 -5 5 -10 10 -10 6 0 10 5 10 10 0 6 -4 10 -10 10 -5 0
-10 -4 -10 -10z"/>
<path d="M1130 1946 c0 -2 8 -10 18 -17 15 -13 16 -12 3 4 -13 16 -21 21 -21
13z"/>
<path d="M5038 1938 c7 -7 12 -20 12 -30 0 -24 17 -23 25 2 8 26 -1 40 -28 40
-16 0 -18 -3 -9 -12z"/>
<path d="M4320 1905 c0 -24 5 -35 15 -35 10 0 15 10 15 29 0 16 -6 31 -15 35
-12 4 -15 -3 -15 -29z"/>
<path d="M1077 1923 c-12 -11 -8 -40 8 -53 13 -11 15 -7 15 24 0 34 -8 44 -23
29z"/>
<path d="M3538 1893 c7 -3 16 -2 19 1 4 3 -2 6 -13 5 -11 0 -14 -3 -6 -6z"/>
<path d="M4120 1880 c0 -5 -13 -10 -30 -10 -23 0 -30 -4 -30 -20 0 -11 -4 -20
-10 -20 -5 0 -10 -7 -10 -15 0 -21 9 -19 39 8 14 12 20 15 14 6 -10 -12 -8
-18 7 -32 19 -16 19 -15 14 12 -4 20 -1 30 10 34 17 7 22 47 6 47 -5 0 -10 -4
-10 -10z"/>
<path d="M3991 1846 c7 -14 17 -25 21 -24 17 6 13 21 -10 36 -23 15 -23 15
-11 -12z"/>
<path d="M5883 1856 c-20 -9 -33 -43 -33 -86 0 -15 8 -18 41 -16 22 1 42 -1
45 -6 7 -12 74 -10 74 2 0 6 -18 10 -40 10 l-40 0 0 49 c0 53 -11 64 -47 47z"/>
<path d="M2876 1845 c-8 -22 3 -40 16 -27 7 7 7 16 1 27 -9 16 -10 16 -17 0z"/>
<path d="M6043 1820 c0 -25 2 -35 4 -22 2 12 2 32 0 45 -2 12 -4 2 -4 -23z"/>
<path d="M3200 1840 c0 -5 5 -10 10 -10 6 0 10 5 10 10 0 6 -4 10 -10 10 -5 0
-10 -4 -10 -10z"/>
<path d="M5065 1830 c-7 -12 2 -30 15 -30 5 0 8 9 7 20 -1 21 -12 26 -22 10z"/>
<path d="M1180 1810 c-22 -7 -21 -8 13 -9 20 -1 37 4 37 9 0 11 -14 11 -50 0z"/>
<path d="M5340 1811 c0 -5 6 -12 13 -14 9 -4 8 -8 -3 -16 -19 -14 -9 -14 27 0
27 10 27 11 9 25 -22 16 -46 19 -46 5z"/>
<path d="M5161 1794 c0 -11 3 -14 6 -6 3 7 2 16 -1 19 -3 4 -6 -2 -5 -13z"/>
<path d="M3015 1743 c9 -20 18 -39 22 -42 3 -4 2 3 -2 14 -5 11 -9 30 -9 43
-1 12 -7 22 -14 22 -9 0 -9 -9 3 -37z"/>
<path d="M2904 1744 c18 -17 37 -18 30 -1 -2 7 -13 13 -24 14 -18 2 -18 0 -6
-13z"/>
<path d="M1298 1743 c-10 -2 -18 -9 -18 -14 0 -13 12 -11 34 6 20 15 16 17
-16 8z"/>
<path d="M195 1720 c-42 -11 -1 -11 50 -1 34 7 35 9 10 9 -16 0 -43 -4 -60 -8z"/>
<path d="M1241 1716 c-8 -9 -11 -19 -7 -23 9 -9 29 13 24 27 -2 8 -8 7 -17 -4z"/>
<path d="M4920 1676 c0 -39 27 -116 41 -116 4 0 15 10 23 21 11 16 22 20 41
17 20 -4 25 -2 21 9 -3 8 -6 16 -6 17 0 1 -20 1 -45 0 -25 -1 -43 1 -40 6 3 5
1 11 -5 15 -5 3 -10 17 -10 30 0 13 -4 27 -10 30 -6 4 -10 -8 -10 -29z"/>
<path d="M100 1691 l-95 -6 -3 -37 -3 -37 53 6 c29 3 71 11 93 18 22 7 66 16
98 19 56 7 76 26 41 40 -16 6 -23 6 -184 -3z"/>
<path d="M1168 1693 c-22 -6 -23 -19 -3 -27 8 -3 15 -1 15 4 0 6 7 10 15 10 8
0 15 5 15 10 0 10 -12 11 -42 3z"/>
<path d="M448 1565 c-3 -3 -417 -45 -441 -45 -4 0 -7 -11 -7 -25 0 -14 5 -25
10 -25 6 0 10 -7 10 -15 0 -9 9 -15 23 -14 12 0 16 3 10 6 -37 14 11 29 157
48 75 10 154 28 165 37 16 14 64 9 74 -9 6 -10 11 -13 11 -6 0 6 7 18 15 26
12 13 12 15 -5 20 -10 3 -20 3 -22 2z"/>
<path d="M4514 1561 c-5 -5 -22 -11 -39 -14 -27 -4 -27 -4 7 -6 20 0 40 4 43
10 9 14 1 21 -11 10z"/>
<path d="M5026 1539 c-11 -11 -17 -21 -14 -24 7 -8 41 21 37 32 -2 6 -13 2
-23 -8z"/>
<path d="M5042 1503 c-10 -17 -9 -22 5 -27 22 -9 28 0 16 26 l-10 23 -11 -22z"/>
<path d="M4725 1465 c-25 -12 -26 -14 -5 -9 28 7 60 23 45 23 -5 0 -23 -6 -40
-14z"/>
<path d="M4891 1448 c-12 -33 -8 -36 46 -28 26 4 52 6 58 5 5 -2 31 -6 58 -9
37 -4 47 -3 47 9 0 8 -6 15 -12 15 -22 1 -152 20 -171 26 -12 4 -20 -2 -26
-18z"/>
<path d="M4645 1440 c-7 -12 2 -12 30 0 19 8 19 9 -2 9 -12 1 -25 -3 -28 -9z"/>
<path d="M4990 1323 c-25 -2 -52 -6 -60 -10 -8 -3 -21 -5 -27 -4 -25 4 -72
-30 -73 -51 0 -10 66 -10 146 -2 46 5 60 10 60 23 1 9 4 24 9 34 4 9 3 16 -1
15 -5 -1 -29 -3 -54 -5z"/>
<path d="M5289 1294 c-12 -14 -11 -16 5 -13 11 2 21 10 24 17 5 17 -13 15 -29
-4z"/>
<path d="M1046 1274 c-9 -24 -8 -25 13 -12 11 7 17 16 15 20 -8 13 -21 9 -28
-8z"/>
<path d="M1561 1183 c0 -4 4 -17 9 -28 8 -19 9 -19 9 2 1 12 -3 25 -9 28 -5 3
-10 3 -9 -2z"/>
<path d="M4810 1181 c0 -5 -3 -16 -6 -24 -6 -17 38 -45 122 -76 76 -28 104
-47 104 -69 0 -13 10 -18 38 -20 20 -1 39 -7 40 -12 2 -6 8 -7 14 -4 6 4 9 1
6 -7 -3 -10 -30 -15 -104 -17 -82 -2 -114 2 -179 21 -44 13 -87 27 -97 31 -11
5 -18 1 -23 -14 -8 -26 -4 -32 32 -35 15 -1 35 -5 43 -8 44 -17 175 -39 200
-34 19 4 30 2 33 -7 3 -8 44 -21 99 -31 93 -18 95 -18 149 3 32 11 61 17 68
12 9 -5 10 -10 2 -14 -6 -4 -16 -4 -22 -1 -12 8 -49 -22 -49 -40 0 -6 -11 -17
-25 -23 -18 -8 -25 -19 -25 -40 0 -77 -120 -85 -177 -12 -16 20 -17 38 -1 22
15 -15 32 -16 23 -2 -9 15 11 12 24 -4 7 -8 20 -12 30 -9 10 3 22 0 25 -6 11
-16 43 -13 50 5 13 33 6 52 -21 59 -16 4 -102 22 -193 40 -91 19 -191 39 -223
46 -61 13 -73 9 -79 -26 -2 -13 3 -20 14 -20 10 0 23 -6 30 -13 19 -20 -18
-44 -54 -36 -16 3 -28 1 -28 -5 0 -18 24 -25 92 -27 47 -1 76 -7 95 -20 53
-36 86 -45 138 -39 43 6 55 3 86 -18 20 -13 49 -29 65 -35 l29 -10 -30 -1
c-16 0 -48 4 -70 9 -33 8 -42 7 -54 -8 -12 -15 -12 -15 -6 5 5 18 1 23 -17 27
-13 3 -61 14 -108 25 -171 40 -186 43 -217 48 -25 4 -33 2 -33 -10 0 -8 6 -18
13 -20 8 -4 6 -6 -4 -6 -9 -1 -21 -12 -27 -25 -10 -22 -8 -25 15 -31 16 -4 31
-1 42 10 19 17 33 11 24 -11 -3 -8 1 -14 8 -14 20 0 -16 -33 -38 -35 -52 -6
-54 -15 -18 -63 20 -25 33 -47 31 -50 -11 -10 -95 10 -115 27 -17 15 -20 27
-17 70 3 43 1 51 -14 51 -9 0 -20 -3 -23 -7 -4 -3 -36 -5 -71 -4 -36 1 -74 -3
-85 -9 -14 -7 -21 -7 -21 0 0 5 -7 10 -15 10 -8 0 -15 5 -15 12 0 6 -12 1 -27
-13 -23 -21 -25 -22 -18 -4 16 43 16 52 0 59 -9 3 -13 2 -10 -4 10 -17 -68
-42 -140 -45 -48 -1 -83 -9 -112 -24 -46 -23 -63 -26 -63 -11 0 6 -8 2 -19 -9
-10 -10 -40 -26 -67 -36 -27 -10 -77 -31 -110 -47 -58 -27 -91 -35 -254 -58
-129 -19 -175 -30 -186 -45 -6 -8 -16 -15 -23 -15 -16 0 -51 -21 -86 -52 -16
-16 -36 -28 -42 -28 -7 0 -13 -4 -13 -10 0 -5 -8 -10 -18 -10 -17 0 -130 -55
-142 -69 -6 -7 -44 -26 -92 -45 -27 -11 -39 -22 -43 -43 -13 -55 -15 -59 -25
-43 -8 13 -10 12 -10 -2 0 -9 -6 -21 -14 -25 -8 -4 -18 -25 -24 -46 l-10 -37
543 0 544 1 103 145 c101 143 203 282 212 292 3 2 17 -5 32 -17 18 -14 31 -18
38 -12 7 6 68 -4 171 -29 88 -22 223 -52 299 -67 120 -24 143 -32 168 -56 25
-25 27 -33 21 -69 -3 -25 -2 -39 3 -35 5 3 77 -1 159 -9 83 -8 167 -15 188
-16 36 -2 37 -3 37 -43 0 -30 6 -47 23 -63 29 -27 32 -27 34 -1 3 29 5 30 43
16 26 -9 34 -9 37 1 7 18 21 15 51 -13 l27 -25 208 0 209 0 -7 33 c-18 85 -99
182 -175 208 -23 9 -28 14 -18 20 20 13 86 11 91 -3 3 -8 6 -5 6 5 1 13 6 17
20 12 12 -3 21 0 25 10 3 9 2 14 -3 11 -19 -12 -203 -27 -214 -18 -36 29 -215
71 -309 72 -116 2 -293 22 -315 36 -26 16 -45 19 -23 3 11 -8 2 -9 -35 -4
-102 12 -125 17 -125 28 0 8 -3 8 -9 -1 -5 -9 -17 -11 -36 -6 l-28 7 34 28 34
28 -43 1 c-35 0 -44 4 -51 23 -5 13 -16 29 -25 36 -9 7 -16 18 -16 24 0 6 -7
18 -16 28 -15 17 -15 18 8 24 33 9 150 -30 183 -60 l26 -25 39 26 40 26 65
-16 c46 -11 71 -13 84 -6 14 7 24 5 41 -10 13 -11 42 -25 64 -31 23 -5 63 -17
90 -26 37 -12 71 -14 134 -10 l84 6 73 -44 c41 -25 78 -45 84 -45 13 0 15 136
2 144 -5 3 -26 8 -47 12 -22 3 -52 9 -69 15 -16 5 -100 24 -185 44 -232 52
-230 51 -125 59 50 4 102 11 117 16 22 7 29 5 41 -13 13 -19 23 -21 135 -21
66 -1 113 2 102 6 -28 10 -31 23 -19 72 11 44 18 50 47 47 23 -3 12 36 -13 47
-19 9 -25 19 -25 42 0 27 2 30 19 20 11 -5 22 -10 25 -10 3 0 6 44 6 99 l0 98
-92 12 c-51 7 -234 35 -407 62 -323 50 -371 56 -371 40z m304 -111 c25 -9 38
-50 16 -50 -5 0 -10 3 -10 8 0 4 -10 12 -22 17 -23 11 -37 35 -19 35 5 0 21
-4 35 -10z m91 -100 c-3 -5 -10 -10 -16 -10 -5 0 -9 5 -9 10 0 6 7 10 16 10 8
0 12 -4 9 -10z m92 -28 c-34 -4 -48 5 -27 18 8 5 22 4 34 -3 20 -11 20 -12 -7
-15z m183 -14 c0 -10 -7 -18 -15 -18 -8 0 -15 9 -15 20 0 27 -18 25 -23 -2 -3
-20 -4 -21 -11 -5 -5 9 -6 23 -3 31 8 21 67 -2 67 -26z m62 -58 c-10 -28 -18
-37 -24 -28 -13 21 -9 48 7 48 8 0 15 7 15 16 0 8 4 13 9 10 5 -4 3 -24 -7
-46z m-52 16 c0 -3 -4 -8 -10 -11 -5 -3 -10 -1 -10 4 0 6 5 11 10 11 6 0 10
-2 10 -4z m-620 -59 c0 8 9 7 30 -3 16 -9 38 -16 49 -17 12 -1 17 -6 13 -17
-13 -34 -57 -40 -102 -13 -28 16 -58 63 -41 63 5 0 12 -6 14 -12 3 -7 6 -4 6
6 1 20 1 20 16 0 8 -10 15 -14 15 -7z m684 -89 c12 -45 7 -58 -19 -58 -22 0
-25 4 -25 40 0 33 4 40 19 40 11 0 21 -9 25 -22z m-574 -132 c0 -2 -7 -9 -15
-16 -12 -10 -15 -10 -15 4 0 9 7 16 15 16 8 0 15 -2 15 -4z m-485 -166 c13 0
27 -5 30 -11 5 -7 -5 -9 -29 -7 -20 2 -36 7 -36 11 0 4 1 15 1 25 1 16 2 16 6
0 3 -11 14 -18 28 -18z m1016 -158 c-7 -2 -18 1 -23 6 -8 8 -4 9 13 5 13 -4
18 -8 10 -11z m-2721 -216 c0 -3 -4 -8 -10 -11 -5 -3 -10 -1 -10 4 0 6 5 11
10 11 6 0 10 -2 10 -4z m905 -46 c3 -6 -1 -7 -9 -4 -18 7 -21 14 -7 14 6 0 13
-4 16 -10z"/>
<path d="M2871 1131 c-8 -6 -9 -11 -3 -15 6 -3 14 -1 17 5 9 14 2 20 -14 10z"/>
<path d="M2800 1121 c0 -6 5 -13 12 -17 6 -4 8 -3 4 4 -3 5 0 13 6 15 8 3 6 6
-4 6 -10 1 -18 -3 -18 -8z"/>
<path d="M1620 1110 c-9 -6 -10 -10 -3 -10 6 0 15 5 18 10 8 12 4 12 -15 0z"/>
<path d="M1615 1060 c3 -5 8 -10 11 -10 2 0 4 5 4 10 0 6 -5 10 -11 10 -5 0
-7 -4 -4 -10z"/>
<path d="M2086 1003 c3 -16 12 -48 19 -73 8 -25 16 -54 18 -65 4 -17 5 -17 6
3 1 24 -37 162 -45 162 -2 0 -2 -12 2 -27z"/>
<path d="M1389 919 c-8 -17 -8 -20 2 -17 7 2 13 12 15 21 3 23 -3 21 -17 -4z"/>
<path d="M1522 884 c-21 -15 -30 -34 -14 -34 7 1 47 50 40 50 -2 0 -14 -7 -26
-16z"/>
<path d="M2775 790 c-4 -6 3 -10 14 -10 25 0 27 6 6 13 -8 4 -17 2 -20 -3z"/>
<path d="M2897 778 c-9 -31 -2 -33 11 -3 6 14 8 25 3 25 -5 0 -11 -10 -14 -22z"/>
<path d="M2927 753 c-3 -5 -19 -46 -37 -93 -17 -47 -42 -112 -55 -145 -29 -73
-117 -302 -155 -405 -16 -41 -31 -83 -35 -92 -6 -15 -1 -18 31 -18 45 0 40 -7
93 155 18 55 35 107 38 115 102 288 159 470 150 479 -13 13 -24 14 -30 4z"/>
<path d="M4311 674 c0 -11 3 -14 6 -6 3 7 2 16 -1 19 -3 4 -6 -2 -5 -13z"/>
<path d="M2399 644 c-2 -40 3 -89 10 -96 4 -5 5 18 3 49 -3 57 -11 84 -13 47z"/>
<path d="M2841 638 c0 -9 -4 -25 -7 -35 -5 -17 -5 -17 6 0 6 10 9 25 7 35 -4
15 -5 15 -6 0z"/>
<path d="M2814 569 c-3 -6 -21 -54 -40 -107 l-33 -97 -63 -7 c-113 -14 -193
-30 -215 -44 -12 -8 -47 -23 -76 -34 -32 -12 -59 -29 -66 -43 l-11 -22 6 24
c4 17 2 22 -7 19 -9 -3 -15 -23 -17 -53 -3 -47 -7 -53 -84 -127 l-80 -78 244
0 245 0 66 178 c37 97 73 197 81 222 7 25 25 75 40 113 23 61 28 84 10 56z"/>
<path d="M5638 573 c7 -3 16 -2 19 1 4 3 -2 6 -13 5 -11 0 -14 -3 -6 -6z"/>
<path d="M2379 528 c-4 -22 0 -149 5 -166 9 -26 26 -21 19 7 -2 10 3 42 11 71
9 30 16 55 16 56 0 3 -50 35 -51 32z"/>
<path d="M4830 426 c0 -2 13 -6 29 -8 17 -2 28 -1 25 4 -5 8 -54 12 -54 4z"/>
<path d="M2250 350 c0 -5 5 -10 10 -10 6 0 10 5 10 10 0 6 -4 10 -10 10 -5 0
-10 -4 -10 -10z"/>
<path d="M5797 319 c7 -7 15 -10 18 -7 3 3 -2 9 -12 12 -14 6 -15 5 -6 -5z"/>
<path d="M2210 290 c0 -5 5 -10 10 -10 6 0 10 5 10 10 0 6 -4 10 -10 10 -5 0
-10 -4 -10 -10z"/>
<path d="M2116 274 c-9 -24 -7 -44 5 -44 6 0 9 6 6 13 -2 6 0 20 5 30 5 10 5
17 -1 17 -5 0 -12 -7 -15 -16z"/>
<path d="M5811 251 c-7 -5 -9 -11 -5 -14 5 -3 15 1 22 9 14 16 5 18 -17 5z"/>
<path d="M2044 216 c-3 -8 -1 -23 5 -33 9 -15 10 -13 11 15 0 34 -7 42 -16 18z"/>
<path d="M4791 145 c-7 -33 -17 -77 -22 -99 -10 -39 -8 -52 9 -42 11 6 37 167
30 187 -3 8 -11 -13 -17 -46z"/>
<path d="M4568 140 c48 -35 62 -37 62 -11 0 14 -12 22 -44 30 -63 16 -64 15
-18 -19z"/>
</g>
</svg>
